<svg width="35" height="35" viewBox="0 0 35 35" fill="none" xmlns="http://www.w3.org/2000/svg">
<g clip-path="url(#clip0_102_156)">
<path d="M5.38672 7.33005C5.38672 8.40127 6.25823 9.27287 7.32954 9.27287C8.40084 9.27287 9.27227 8.40135 9.27227 7.33005C9.27227 6.25875 8.40076 5.38731 7.32954 5.38731C6.25831 5.38731 5.38672 6.25883 5.38672 7.33005ZM7.68856 7.33005C7.68856 7.52809 7.5275 7.68916 7.32954 7.68916C7.13157 7.68916 6.97043 7.52809 6.97043 7.33005C6.97043 7.13209 7.13149 6.97102 7.32954 6.97102C7.5275 6.97102 7.68856 7.13209 7.68856 7.33005Z" fill="#E82027"/>
<path d="M4.27707 7.33005C4.27707 5.64681 5.64643 4.27745 7.32967 4.27745C7.76701 4.27745 8.12153 3.92286 8.12153 3.4856C8.12153 3.04833 7.76701 2.69374 7.32967 2.69374C4.77317 2.69374 2.69336 4.77363 2.69336 7.33005C2.69336 7.76732 3.04787 8.12191 3.48521 8.12191C3.92256 8.12191 4.27707 7.76739 4.27707 7.33005Z" fill="#E82027"/>
<path d="M9.21295 4.92797C9.95563 5.51149 10.3816 6.38704 10.3816 7.33006C10.3816 9.01331 9.01221 10.3827 7.32896 10.3827C6.89162 10.3827 6.53711 10.7373 6.53711 11.1746C6.53711 11.6119 6.89162 11.9665 7.32896 11.9665C9.88547 11.9665 11.9653 9.88656 11.9653 7.33006C11.9653 5.89783 11.3187 4.56839 10.1914 3.68262C9.84746 3.41236 9.3497 3.4723 9.07944 3.81612C8.80934 4.16003 8.86912 4.65779 9.21295 4.92797Z" fill="#E82027"/>
<path d="M35 0.792099C35 0.354837 34.6455 0.000244141 34.2081 0.000244141H7.32989C3.28818 0.000244141 0 3.28834 0 7.33005C0 7.33789 0.000237557 7.34565 0.000316742 7.35349C0.000316742 7.35547 0 7.35737 0 7.35943V27.6704C0 31.7121 3.28818 35.0002 7.32989 35.0002C11.104 35.0002 14.2207 32.1329 14.6169 28.4623H27.8983C27.925 28.4623 27.9515 28.4609 27.9778 28.4583C28.1387 28.4422 28.2855 28.378 28.4034 28.2802C28.4101 28.2746 28.4163 28.2683 28.4229 28.2624C28.4356 28.2511 28.4485 28.2399 28.4605 28.2277C28.4613 28.227 28.4621 28.2262 28.463 28.2254L34.7661 21.8132C34.7677 21.8116 34.7693 21.8099 34.7708 21.8083L34.7729 21.8062C34.7757 21.8033 34.7781 21.8002 34.7809 21.7972C34.7955 21.782 34.8098 21.7663 34.8231 21.7499C34.8266 21.7455 34.8297 21.7409 34.8331 21.7366C34.8454 21.7208 34.8575 21.7047 34.8686 21.6879C34.8714 21.6836 34.8738 21.6792 34.8766 21.6748C34.8876 21.6575 34.8983 21.6398 34.908 21.6216C34.9098 21.6181 34.9113 21.6145 34.9131 21.611C34.923 21.5918 34.9324 21.5722 34.9406 21.5521C34.9419 21.5491 34.9427 21.5459 34.9439 21.5429C34.9521 21.5223 34.9598 21.5014 34.9662 21.4799C34.9673 21.4763 34.968 21.4725 34.969 21.4688C34.975 21.4481 34.9804 21.4272 34.9847 21.4058C34.9861 21.3986 34.9868 21.3913 34.988 21.3841C34.9911 21.3661 34.9942 21.3482 34.996 21.3297C34.9984 21.3063 34.9994 21.2826 34.9996 21.2589C34.9996 21.2564 35 21.254 35 21.2515V21.2513V0.792099ZM33.4163 1.58395V20.4596H27.8982C27.4609 20.4596 27.1064 20.8142 27.1064 21.2514V26.8786H14.6597V7.35943C14.6597 7.35745 14.6594 7.35555 14.6594 7.35357C14.6594 7.34573 14.6597 7.33797 14.6597 7.33013C14.6597 5.00406 13.5703 2.92773 11.8752 1.58403L33.4163 1.58395ZM32.3192 22.0433L28.6901 25.7353V22.0433H32.3192ZM7.32989 1.58395C10.4983 1.58395 13.076 4.16168 13.076 7.33005C13.076 10.4986 10.4983 13.0762 7.32989 13.0762C4.16144 13.0763 1.58371 10.4986 1.58371 7.33005C1.58371 4.16168 4.16144 1.58395 7.32989 1.58395ZM7.32989 33.4165C4.16144 33.4165 1.58371 30.8388 1.58371 27.6704V11.8755C2.92741 13.5707 5.00373 14.66 7.32989 14.66C9.65596 14.66 11.7323 13.5707 13.076 11.8755V27.6704C13.076 30.8388 10.4983 33.4165 7.32989 33.4165Z" fill="#E82027"/>
</g>
<defs>
<clipPath id="clip0_102_156">
<rect width="35" height="35" fill="white" transform="translate(0 0.000244141)"/>
</clipPath>
</defs>
</svg>
