<svg width="35" height="35" viewBox="0 0 35 35" fill="none" xmlns="http://www.w3.org/2000/svg">
<g clip-path="url(#clip0_102_186)">
<path d="M10.7381 8.86729C12.5115 9.34707 14.9131 9.61131 17.5002 9.61131C20.0874 9.61131 22.4889 9.34707 24.2624 8.86729C26.437 8.27902 27.5395 7.40544 27.5395 6.27071C27.5395 5.13606 26.437 4.26241 24.2624 3.67414C22.4888 3.19436 20.0874 2.93011 17.5002 2.93011C14.9131 2.93011 12.5116 3.19436 10.7381 3.67414C8.56352 4.26241 7.46094 5.13606 7.46094 6.27071C7.46094 7.40536 8.56352 8.27894 10.7381 8.86729ZM11.1517 5.2029C12.7942 4.75851 15.0488 4.51383 17.5002 4.51383C19.9517 4.51383 22.2063 4.75851 23.8488 5.2029C25.5895 5.67381 25.9558 6.18884 25.9558 6.27071C25.9558 6.35259 25.5896 6.86761 23.8488 7.33853C22.2063 7.78284 19.9517 8.0276 17.5002 8.0276C15.0488 8.0276 12.7942 7.78292 11.1517 7.33853C9.41096 6.86761 9.04465 6.35259 9.04465 6.27071C9.04465 6.18884 9.41088 5.67374 11.1517 5.2029Z" fill="#E82027"/>
<path d="M26.7737 1.66987C24.2837 0.593185 20.9905 0.000244141 17.5006 0.000244141C14.0107 0.000244141 10.7175 0.593185 8.2275 1.66987C5.52656 2.83786 4.03906 4.47177 4.03906 6.27071V26.2645C4.03906 28.669 5.48879 30.9021 8.12116 32.5526C10.6385 34.1309 13.9696 35.0002 17.5006 35.0002C21.0316 35.0002 24.3627 34.1309 26.88 32.5525C29.5124 30.9021 30.9621 28.6689 30.9621 26.2644V6.27071C30.9621 4.47177 29.4746 2.83786 26.7737 1.66987ZM8.85608 3.12356C11.1521 2.13073 14.2221 1.58395 17.5006 1.58395C20.7791 1.58395 23.8491 2.13073 26.1451 3.12356C28.1999 4.0121 29.3784 5.1591 29.3784 6.27071C29.3784 7.4307 28.1145 8.61365 25.9109 9.51613C25.6135 9.63791 25.4192 9.9275 25.4192 10.2489V19.7433C25.4192 20.0054 25.2061 20.2184 24.944 20.2184C24.682 20.2184 24.4689 20.0054 24.4689 19.7433V11.0549C24.4689 10.8121 24.3576 10.5828 24.1668 10.4326C23.9759 10.2825 23.7267 10.2281 23.4909 10.2853C22.716 10.4727 21.8919 10.6236 21.0414 10.7338C20.6467 10.785 20.3513 11.1211 20.3513 11.5191V26.8701C20.3513 27.1321 20.1382 27.3452 19.8762 27.3452C19.6141 27.3452 19.4011 27.1321 19.4011 26.8701V11.7283C19.4011 11.5131 19.3136 11.3072 19.1585 11.158C19.0107 11.0156 18.8137 10.9364 18.6092 10.9364C18.5993 10.9364 18.5894 10.9366 18.5795 10.937C18.2154 10.9506 17.8523 10.9575 17.5006 10.9575C14.2221 10.9575 11.1521 10.4108 8.85608 9.41794C6.80129 8.52924 5.62277 7.38224 5.62277 6.27071C5.62277 5.15918 6.80129 4.0121 8.85608 3.12356ZM26.0388 31.2108C23.7702 32.6332 20.7379 33.4165 17.5006 33.4165C14.2633 33.4165 11.231 32.6332 8.96242 31.2108C6.80881 29.8605 5.62277 28.1038 5.62277 26.2644V9.29639C6.29276 9.88109 7.16594 10.4123 8.2275 10.8714C10.7175 11.9482 14.0107 12.5411 17.5006 12.5411C17.6054 12.5411 17.711 12.5405 17.8173 12.5394V26.87C17.8173 28.0052 18.741 28.9289 19.8762 28.9289C21.0114 28.9289 21.935 28.0052 21.935 26.87V12.2057C22.2564 12.1554 22.5734 12.0995 22.8852 12.0383V19.7433C22.8852 20.8785 23.8088 21.8022 24.944 21.8022C26.0792 21.8022 27.0029 20.8785 27.0029 19.7433V10.7697C27.9616 10.3349 28.7576 9.84039 29.3784 9.29971V26.2643C29.3784 28.1038 28.1924 29.8605 26.0388 31.2108Z" fill="#E82027"/>
</g>
<defs>
<clipPath id="clip0_102_186">
<rect width="35" height="35" fill="white" transform="translate(0 0.000244141)"/>
</clipPath>
</defs>
</svg>
