<svg width="39" height="22" viewBox="0 0 39 22" fill="none" xmlns="http://www.w3.org/2000/svg">
<path d="M0.75 11.0776C0.75 11.2776 0.79375 11.4776 0.871875 11.6682C0.946875 11.8526 1.05937 12.0182 1.19687 12.1589C1.2 12.1651 1.20312 12.1714 1.20625 12.1776L10.5812 21.5526C11.1906 22.162 12.1813 22.162 12.7906 21.5526C13.4 20.9432 13.4 19.9526 12.7906 19.3432L6.08437 12.6339H36.6875C37.55 12.6339 38.25 11.9339 38.25 11.0714C38.25 10.2089 37.55 9.50886 36.6875 9.50886H6.08437L12.7906 2.80261C13.4 2.19323 13.4 1.20261 12.7906 0.593231C12.1813 -0.0161438 11.1906 -0.0161438 10.5812 0.593231L1.20625 9.96823C1.20312 9.97136 1.2 9.98073 1.19687 9.98386C1.05937 10.1245 0.946875 10.2901 0.871875 10.4745C0.790625 10.6651 0.75 10.8682 0.75 11.0714C0.75 11.0745 0.75 11.0745 0.75 11.0776Z" fill="#74787C"/>
</svg>
