<svg width="20" height="20" viewBox="0 0 20 20" fill="none" xmlns="http://www.w3.org/2000/svg">
<path d="M14.8154 9.57008L11.1166 5.38883C10.8716 5.14383 10.4729 5.14383 10.2279 5.38883C9.98289 5.63383 9.98289 6.03258 10.2279 6.27758L13.5404 10.0226L10.2279 13.7676C9.98289 14.0126 9.98289 14.4113 10.2279 14.6563C10.4729 14.9013 10.8716 14.9013 11.1166 14.6563L14.8154 10.4751C14.9404 10.3501 15.0004 10.1863 14.9979 10.0226C14.9991 9.85883 14.9404 9.69508 14.8154 9.57008ZM5.74414 14.6576C5.98914 14.9026 6.38789 14.9026 6.63289 14.6576L10.3316 10.4763C10.4566 10.3513 10.5166 10.1876 10.5141 10.0238C10.5166 9.86008 10.4566 9.69508 10.3316 9.57133L6.63414 5.38883C6.38914 5.14383 5.99039 5.14383 5.74539 5.38883C5.50039 5.63383 5.50039 6.03258 5.74539 6.27758L9.05789 10.0226L5.74539 13.7676C5.49914 14.0138 5.49914 14.4126 5.74414 14.6576Z" fill="white"/>
</svg>
