<svg width="15" height="15" viewBox="0 0 15 15" fill="none" xmlns="http://www.w3.org/2000/svg">
<path d="M14.5155 7.60944L10.0155 3.10944C9.86925 2.96319 9.6315 2.96319 9.48525 3.10944C9.339 3.25569 9.339 3.49344 9.48525 3.63969L13.3447 7.49919H1.125C0.918 7.49919 0.75 7.66719 0.75 7.87419C0.75 8.08119 0.918 8.24919 1.125 8.24919H13.3447L9.48525 12.1087C9.339 12.2549 9.339 12.4927 9.48525 12.6389C9.55875 12.7124 9.65475 12.7484 9.75075 12.7484C9.84675 12.7484 9.94275 12.7117 10.0162 12.6389L14.5162 8.13894C14.6625 7.99269 14.6625 7.75494 14.5162 7.60869L14.5155 7.60944Z" fill="white"/>
</svg>
