<svg width="90" height="90" viewBox="0 0 90 90" fill="none" xmlns="http://www.w3.org/2000/svg">
<path d="M62.8021 9.76256V2.0362C62.8021 0.91181 61.8905 0 60.7659 0H3.43268C2.30809 0 1.39648 0.91181 1.39648 2.0362V80.5046C1.39648 81.629 2.30809 82.5408 3.43268 82.5408H3.68965C4.62447 86.8011 8.42626 90 12.9631 90H51.2357C55.7726 90 59.5742 86.8011 60.509 82.5408H60.7659C61.8905 82.5408 62.8021 81.629 62.8021 80.5046V65.2919C77.2052 64.2455 88.6045 52.1925 88.6045 37.5274C88.6045 22.8622 77.2052 10.809 62.8021 9.76256ZM60.7659 61.2935C59.6413 61.2935 58.7297 62.2053 58.7297 63.3297V78.4686H27.6838C26.5592 78.4686 25.6476 79.3804 25.6476 80.5048C25.6476 81.6292 26.5592 82.541 27.6838 82.541H56.2604C55.4537 84.5247 53.5059 85.9276 51.2357 85.9276H12.9631C10.6928 85.9276 8.74513 84.5247 7.93818 82.5408H19.8037C20.9283 82.5408 21.8399 81.629 21.8399 80.5046C21.8399 79.3802 20.9283 78.4684 19.8037 78.4684H5.46888V4.0724H58.7297V11.725C58.7297 12.8494 59.6413 13.7612 60.7659 13.7612C73.8705 13.7612 84.5321 24.4226 84.5321 37.5274C84.5321 50.6321 73.8707 61.2935 60.7659 61.2935Z" fill="#E82027"/>
<path d="M60.7667 17.9578C59.6421 17.9578 58.7305 18.8696 58.7305 19.994V55.0608C58.7305 56.1852 59.6421 57.097 60.7667 57.097C71.5573 57.097 80.3362 48.3181 80.3362 37.5275C80.3362 26.7368 71.5573 17.9578 60.7667 17.9578ZM62.8029 52.8914V22.1635C70.3893 23.1635 76.2638 29.6724 76.2638 37.5275C76.2638 45.3825 70.3895 51.8914 62.8029 52.8914Z" fill="#E82027"/>
<path d="M45.754 57.7637C44.8729 57.7637 44.1226 58.3232 43.839 59.1065C43.0558 59.3902 42.4961 60.1405 42.4961 61.0216C42.4961 62.146 43.4077 63.0578 44.5323 63.0578H45.754C46.8786 63.0578 47.7902 62.146 47.7902 61.0216V59.7999C47.7902 58.6753 46.8786 57.7637 45.754 57.7637Z" fill="#E82027"/>
<path d="M37.7847 58.9854H35.4717C34.3472 58.9854 33.4355 59.8972 33.4355 61.0216C33.4355 62.1459 34.3472 63.0577 35.4717 63.0577H37.7847C38.9093 63.0577 39.8209 62.1459 39.8209 61.0216C39.8209 59.8972 38.9093 58.9854 37.7847 58.9854Z" fill="#E82027"/>
<path d="M28.7261 58.9854H26.4132C25.2886 58.9854 24.377 59.8972 24.377 61.0216C24.377 62.1459 25.2886 63.0577 26.4132 63.0577H28.7261C29.8507 63.0577 30.7623 62.1459 30.7623 61.0216C30.7623 59.8972 29.8507 58.9854 28.7261 58.9854Z" fill="#E82027"/>
<path d="M20.3594 59.1063C20.0758 58.323 19.3255 57.7634 18.4444 57.7634C17.3198 57.7634 16.4082 58.6752 16.4082 59.7996V61.0213C16.4082 62.1457 17.3198 63.0575 18.4444 63.0575H19.6661C20.7907 63.0575 21.7023 62.1457 21.7023 61.0213C21.7023 60.1403 21.1426 59.3899 20.3594 59.1063Z" fill="#E82027"/>
<path d="M18.4444 44.5701C19.569 44.5701 20.4806 43.6583 20.4806 42.5339V40.0071C20.4806 38.8828 19.569 37.9709 18.4444 37.9709C17.3198 37.9709 16.4082 38.8828 16.4082 40.0071V42.5339C16.4082 43.6583 17.3198 44.5701 18.4444 44.5701Z" fill="#E82027"/>
<path d="M18.4444 34.6736C19.569 34.6736 20.4806 33.7618 20.4806 32.6374V30.1107C20.4806 28.9863 19.569 28.0745 18.4444 28.0745C17.3198 28.0745 16.4082 28.9863 16.4082 30.1107V32.6374C16.4082 33.762 17.3198 34.6736 18.4444 34.6736Z" fill="#E82027"/>
<path d="M18.4444 54.4663C19.569 54.4663 20.4806 53.5545 20.4806 52.4301V49.9034C20.4806 48.779 19.569 47.8672 18.4444 47.8672C17.3198 47.8672 16.4082 48.779 16.4082 49.9034V52.4301C16.4082 53.5547 17.3198 54.4663 18.4444 54.4663Z" fill="#E82027"/>
<path d="M19.6661 19.4832H18.4444C17.3198 19.4832 16.4082 20.395 16.4082 21.5194V22.7411C16.4082 23.8655 17.3198 24.7773 18.4444 24.7773C19.3255 24.7773 20.0758 24.2177 20.3594 23.4344C21.1426 23.1508 21.7023 22.4004 21.7023 21.5194C21.7023 20.3948 20.7907 19.4832 19.6661 19.4832Z" fill="#E82027"/>
<path d="M28.7261 19.4832H26.4132C25.2886 19.4832 24.377 20.395 24.377 21.5194C24.377 22.6437 25.2886 23.5556 26.4132 23.5556H28.7261C29.8507 23.5556 30.7623 22.6437 30.7623 21.5194C30.7623 20.395 29.8507 19.4832 28.7261 19.4832Z" fill="#E82027"/>
<path d="M37.7847 19.4832H35.4717C34.3472 19.4832 33.4355 20.395 33.4355 21.5194C33.4355 22.6437 34.3472 23.5556 35.4717 23.5556H37.7847C38.9093 23.5556 39.8209 22.6437 39.8209 21.5194C39.8209 20.395 38.9093 19.4832 37.7847 19.4832Z" fill="#E82027"/>
<path d="M45.754 19.4832H44.5323C43.4077 19.4832 42.4961 20.395 42.4961 21.5194C42.4961 22.4004 43.0558 23.151 43.839 23.4344C44.1226 24.2177 44.8729 24.7773 45.754 24.7773C46.8786 24.7773 47.7902 23.8655 47.7902 22.7411V21.5194C47.7902 20.3948 46.8786 19.4832 45.754 19.4832Z" fill="#E82027"/>
<path d="M45.753 37.9709C44.6284 37.9709 43.7168 38.8828 43.7168 40.0071V42.5339C43.7168 43.6583 44.6284 44.5701 45.753 44.5701C46.8776 44.5701 47.7892 43.6583 47.7892 42.5339V40.0071C47.7892 38.8828 46.8776 37.9709 45.753 37.9709Z" fill="#E82027"/>
<path d="M45.753 28.0745C44.6284 28.0745 43.7168 28.9863 43.7168 30.1107V32.6374C43.7168 33.7618 44.6284 34.6736 45.753 34.6736C46.8776 34.6736 47.7892 33.7618 47.7892 32.6374V30.1107C47.7892 28.9861 46.8776 28.0745 45.753 28.0745Z" fill="#E82027"/>
<path d="M45.753 47.8672C44.6284 47.8672 43.7168 48.779 43.7168 49.9034V52.4301C43.7168 53.5545 44.6284 54.4663 45.753 54.4663C46.8776 54.4663 47.7892 53.5545 47.7892 52.4301V49.9034C47.7892 48.779 46.8776 47.8672 45.753 47.8672Z" fill="#E82027"/>
</svg>
