<svg width="60" height="59" viewBox="0 0 60 59" fill="none" xmlns="http://www.w3.org/2000/svg">
<path d="M5.9362 4.42029C5.53349 4.42029 5.20703 4.74675 5.20703 5.14945V41.6078C5.20703 42.0106 5.53349 42.337 5.9362 42.337H21.2487V46.712H5.9362C3.11724 46.712 0.832031 44.4267 0.832031 41.6078V5.14945C0.832031 2.3305 3.11724 0.0452881 5.9362 0.0452881H21.9779C24.7968 0.0452881 27.082 2.3305 27.082 5.14945V13.8995C27.082 14.3022 27.4084 14.6286 27.8112 14.6286H30.7279C33.5468 14.6286 35.832 16.9138 35.832 19.7328V19.9421L31.457 24.0255V19.7328C31.457 19.3301 31.1307 19.0036 30.7279 19.0036H27.8112C24.9922 19.0036 22.707 16.7184 22.707 13.8995V5.14945C22.707 4.74675 22.3806 4.42029 21.9779 4.42029H5.9362ZM12.4987 10.9828C12.4987 12.1909 11.5193 13.1703 10.3112 13.1703C9.10308 13.1703 8.1237 12.1909 8.1237 10.9828C8.1237 9.77468 9.10308 8.79529 10.3112 8.79529C11.5193 8.79529 12.4987 9.77468 12.4987 10.9828ZM10.3112 21.9203C11.5193 21.9203 12.4987 20.9409 12.4987 19.7328C12.4987 18.5247 11.5193 17.5453 10.3112 17.5453C9.10308 17.5453 8.1237 18.5247 8.1237 19.7328C8.1237 20.9409 9.10308 21.9203 10.3112 21.9203ZM12.4987 28.4828C12.4987 29.6909 11.5193 30.6703 10.3112 30.6703C9.10308 30.6703 8.1237 29.6909 8.1237 28.4828C8.1237 27.2747 9.10308 26.2953 10.3112 26.2953C11.5193 26.2953 12.4987 27.2747 12.4987 28.4828ZM17.6029 13.1703C18.811 13.1703 19.7904 12.1909 19.7904 10.9828C19.7904 9.77468 18.811 8.79529 17.6029 8.79529C16.3948 8.79529 15.4154 9.77468 15.4154 10.9828C15.4154 12.1909 16.3948 13.1703 17.6029 13.1703ZM19.7904 19.7328C19.7904 20.9409 18.811 21.9203 17.6029 21.9203C16.3948 21.9203 15.4154 20.9409 15.4154 19.7328C15.4154 18.5247 16.3948 17.5453 17.6029 17.5453C18.811 17.5453 19.7904 18.5247 19.7904 19.7328ZM17.6029 30.6703C18.811 30.6703 19.7904 29.6909 19.7904 28.4828C19.7904 27.2747 18.811 26.2953 17.6029 26.2953C16.3948 26.2953 15.4154 27.2747 15.4154 28.4828C15.4154 29.6909 16.3948 30.6703 17.6029 30.6703ZM45.1482 21.7411C43.187 19.9107 40.1437 19.9107 38.1826 21.7411L25.7867 33.3105C24.7525 34.2759 24.1654 35.6272 24.1654 37.042V54.0036C24.1654 56.4198 26.1242 58.3786 28.5404 58.3786H34.3737C36.7899 58.3786 38.7487 56.4198 38.7487 54.0036V46.7131H44.582V54.0036C44.582 56.4198 46.5409 58.3786 48.957 58.3786H54.7904C57.2065 58.3786 59.1654 56.4198 59.1654 54.0036V37.042C59.1654 35.6272 58.5782 34.2759 57.544 33.3105L45.1482 21.7411ZM41.1678 24.9393C41.4481 24.678 41.8827 24.678 42.1629 24.9393L54.5588 36.5089C54.7064 36.6468 54.7904 36.8399 54.7904 37.042V54.0036H48.957V46.7131C48.957 44.297 46.9982 42.3381 44.582 42.3381H38.7487C36.3325 42.3381 34.3737 44.297 34.3737 46.7131V54.0036H28.5404V37.042C28.5404 36.8399 28.6244 36.6468 28.7719 36.5089L41.1678 24.9393Z" fill="#E82027"/>
</svg>
