<svg width="54" height="55" viewBox="0 0 54 55" fill="none" xmlns="http://www.w3.org/2000/svg">
<path d="M29.9167 12.5057C29.9167 14.1165 28.6109 15.4223 27 15.4223C25.3891 15.4223 24.0833 14.1165 24.0833 12.5057C24.0833 10.8948 25.3891 9.589 27 9.589C28.6109 9.589 29.9167 10.8948 29.9167 12.5057ZM30.0088 1.05574C28.2163 -0.252355 25.7838 -0.252355 23.9912 1.05574L2.34416 16.8523C-0.505654 18.9318 0.965309 23.4431 4.49325 23.4431H5.125V40.3594C2.52794 41.6871 0.75 44.3888 0.75 47.5056V51.8806C0.75 53.0886 1.72939 54.0681 2.9375 54.0681H51.0625C52.2706 54.0681 53.25 53.0886 53.25 51.8806V47.5056C53.25 44.3888 51.472 41.6871 48.875 40.3594V23.4431H49.5068C53.0348 23.4431 54.5056 18.9319 51.6558 16.8523L30.0088 1.05574ZM26.5701 4.58981C26.8262 4.40294 27.1738 4.40294 27.4299 4.58981L47.2705 19.0682H6.72949L26.5701 4.58981ZM44.5 23.4431V39.4847H38.6667V23.4431H44.5ZM34.2917 23.4431V39.4847H29.1875V23.4431H34.2917ZM24.8125 23.4431V39.4847H19.7083V23.4431H24.8125ZM8.77083 43.8597H45.2292C47.2428 43.8597 48.875 45.4922 48.875 47.5056V49.6931H5.125V47.5056C5.125 45.4922 6.75728 43.8597 8.77083 43.8597ZM9.5 39.4847V23.4431H15.3333V39.4847H9.5Z" fill="#E82027"/>
</svg>
