<svg width="15" height="15" viewBox="0 0 15 15" fill="none" xmlns="http://www.w3.org/2000/svg">
<g clip-path="url(#clip0_198_115)">
<path fill-rule="evenodd" clip-rule="evenodd" d="M7.5 1.71875C4.3071 1.71875 1.71875 4.3071 1.71875 7.5V13.2812H7.5C10.6929 13.2812 13.2812 10.6929 13.2812 7.5C13.2812 4.3071 10.6929 1.71875 7.5 1.71875ZM1.25 13.75L0.78125 13.7499V7.5C0.78125 3.78934 3.78934 0.78125 7.5 0.78125C11.2107 0.78125 14.2188 3.78934 14.2188 7.5C14.2188 11.2107 11.2107 14.2188 7.5 14.2188H1.25005L1.25 13.75ZM1.25 13.75L1.25005 14.2188C0.991169 14.2188 0.78125 14.0088 0.78125 13.7499L1.25 13.75Z" fill="#E82027"/>
<path fill-rule="evenodd" clip-rule="evenodd" d="M3.90625 5.625C3.90625 5.36612 4.11612 5.15625 4.375 5.15625H10C10.2589 5.15625 10.4688 5.36612 10.4688 5.625C10.4688 5.88388 10.2589 6.09375 10 6.09375H4.375C4.11612 6.09375 3.90625 5.88388 3.90625 5.625Z" fill="#E82027"/>
<path fill-rule="evenodd" clip-rule="evenodd" d="M3.90625 8.125C3.90625 7.86612 4.11612 7.65625 4.375 7.65625H10C10.2589 7.65625 10.4688 7.86612 10.4688 8.125C10.4688 8.38388 10.2589 8.59375 10 8.59375H4.375C4.11612 8.59375 3.90625 8.38388 3.90625 8.125Z" fill="#E82027"/>
<path fill-rule="evenodd" clip-rule="evenodd" d="M3.90625 10.625C3.90625 10.3661 4.11612 10.1562 4.375 10.1562H7.5C7.75887 10.1562 7.96875 10.3661 7.96875 10.625C7.96875 10.8839 7.75887 11.0938 7.5 11.0938H4.375C4.11612 11.0938 3.90625 10.8839 3.90625 10.625Z" fill="#E82027"/>
</g>
<defs>
<clipPath id="clip0_198_115">
<rect width="15" height="15" fill="white"/>
</clipPath>
</defs>
</svg>
