<svg width="60" height="60" viewBox="0 0 60 60" fill="none" xmlns="http://www.w3.org/2000/svg">
<path d="M50 49.375H10C8.17866 49.3684 6.43381 48.642 5.14592 47.3541C3.85803 46.0662 3.13159 44.3213 3.125 42.5V17.5C3.13159 15.6787 3.85803 13.9338 5.14592 12.6459C6.43381 11.358 8.17866 10.6316 10 10.625H50C51.8213 10.6316 53.5662 11.358 54.8541 12.6459C56.142 13.9338 56.8684 15.6787 56.875 17.5V42.5C56.8684 44.3213 56.142 46.0662 54.8541 47.3541C53.5662 48.642 51.8213 49.3684 50 49.375ZM10 14.375C9.1712 14.375 8.37634 14.7042 7.79029 15.2903C7.20424 15.8763 6.875 16.6712 6.875 17.5V42.5C6.875 43.3288 7.20424 44.1237 7.79029 44.7097C8.37634 45.2958 9.1712 45.625 10 45.625H50C50.8288 45.625 51.6237 45.2958 52.2097 44.7097C52.7958 44.1237 53.125 43.3288 53.125 42.5V17.5C53.125 16.6712 52.7958 15.8763 52.2097 15.2903C51.6237 14.7042 50.8288 14.375 50 14.375H10Z" fill="#E82027"/>
<path d="M29.9974 33.3749C28.5466 33.3749 27.1223 32.9865 25.8724 32.2499L4.04738 19.2749C3.63962 19.0208 3.34328 18.6216 3.21803 18.1577C3.09279 17.6939 3.14794 17.1998 3.37238 16.7749C3.62199 16.3619 4.02311 16.0628 4.49015 15.9414C4.9572 15.8199 5.45322 15.8858 5.87238 16.1249L27.7224 29.0749C28.385 29.4791 29.1462 29.6929 29.9224 29.6929C30.6986 29.6929 31.4597 29.4791 32.1224 29.0749L53.9724 16.1249C54.3915 15.8858 54.8876 15.8199 55.3546 15.9414C55.8217 16.0628 56.2228 16.3619 56.4724 16.7749C56.6968 17.1998 56.752 17.6939 56.6267 18.1577C56.5015 18.6216 56.2051 19.0208 55.7974 19.2749L34.1224 32.2499C32.8725 32.9865 31.4482 33.3749 29.9974 33.3749Z" fill="#E82027"/>
</svg>
