<svg width="35" height="35" viewBox="0 0 35 35" fill="none" xmlns="http://www.w3.org/2000/svg">
<g clip-path="url(#clip0_102_171)">
<path d="M31.6818 9.02177H30.8904C30.4531 9.02177 30.0985 9.37637 30.0985 9.81363C30.0985 10.2508 30.4529 10.6052 30.8899 10.6055V33.4165H13.1306C13.1303 32.9794 12.7759 32.6252 12.3387 32.6252C11.9015 32.6252 11.5469 32.9798 11.5469 33.417V34.2084C11.5469 34.6457 11.9015 35.0002 12.3387 35.0002H31.6817C32.119 35.0002 32.4736 34.6457 32.4736 34.2084V9.81363C32.4736 9.37629 32.119 9.02177 31.6818 9.02177Z" fill="#E82027"/>
<path d="M29.4657 31.2012V6.8064C29.4657 6.36913 29.1111 6.01454 28.6739 6.01454H27.8826C27.4453 6.01454 27.0907 6.36913 27.0907 6.8064C27.0907 7.24358 27.445 7.59794 27.882 7.59825V30.4093H10.1228C10.1225 29.9722 9.7681 29.618 9.33092 29.618C8.89366 29.618 8.53906 29.9726 8.53906 30.4099V31.2012C8.53906 31.6384 8.89366 31.993 9.33092 31.993H28.6739C29.1111 31.993 29.4657 31.6385 29.4657 31.2012Z" fill="#E82027"/>
<path d="M26.4599 28.1941V3.79933C26.4599 3.36207 26.1053 3.00748 25.668 3.00748H23.044C22.6067 3.00748 22.2521 3.36207 22.2521 3.79933C22.2521 4.23659 22.6067 4.59119 23.044 4.59119H24.8762V27.4022H7.11691C7.11668 26.9651 6.76224 26.6109 6.32506 26.6109C5.8878 26.6109 5.5332 26.9655 5.5332 27.4027V28.1941C5.5332 28.6314 5.8878 28.9859 6.32506 28.9859H25.668C26.1054 28.9859 26.4599 28.6314 26.4599 28.1941Z" fill="#E82027"/>
<path d="M23.4521 25.1869V6.58143C23.4521 6.5549 23.4508 6.52854 23.4482 6.5024C23.4463 6.48324 23.443 6.46447 23.4397 6.44571C23.4385 6.43906 23.438 6.43225 23.4366 6.42559C23.4321 6.40295 23.4262 6.38078 23.4198 6.35884C23.419 6.35615 23.4186 6.35338 23.4178 6.35076C23.411 6.32851 23.403 6.30674 23.3943 6.28536C23.3934 6.2829 23.3927 6.28037 23.3916 6.27799C23.3833 6.2578 23.3737 6.23832 23.3638 6.219C23.3619 6.21528 23.3604 6.21148 23.3584 6.20783C23.3491 6.19049 23.3387 6.17394 23.3282 6.15739C23.3248 6.15201 23.3219 6.14647 23.3183 6.14116C23.3084 6.12635 23.2975 6.11242 23.2866 6.0984C23.2817 6.09191 23.2772 6.08518 23.272 6.07884C23.26 6.06435 23.2471 6.05073 23.2342 6.03719C23.2294 6.03212 23.2251 6.02666 23.2202 6.02167L17.4309 0.232179C17.4259 0.22719 17.4204 0.222993 17.4154 0.218163C17.4017 0.205255 17.3882 0.192348 17.3737 0.180391C17.3674 0.175165 17.3606 0.170731 17.3541 0.165742C17.3401 0.154893 17.3261 0.143966 17.3114 0.134068C17.3061 0.130584 17.3005 0.127574 17.2952 0.124169C17.2786 0.113638 17.2621 0.103264 17.2447 0.0939998C17.2411 0.0920202 17.2372 0.0905156 17.2335 0.0886152C17.2143 0.0786378 17.1947 0.0691355 17.1746 0.0607419C17.1721 0.0597125 17.1696 0.0589998 17.1672 0.0580496C17.1458 0.0494183 17.124 0.0414206 17.1018 0.0346107C17.0991 0.0338188 17.0964 0.0333437 17.0937 0.0325518C17.0718 0.0261378 17.0496 0.0202781 17.027 0.0157645C17.0203 0.0144183 17.0135 0.013864 17.0068 0.0126763C16.9881 0.00942966 16.9693 0.00610387 16.9501 0.00420342C16.924 0.00159029 16.8976 0.000244141 16.8711 0.000244141H3.31725C2.87998 0.000244141 2.52539 0.354837 2.52539 0.792099V25.1869C2.52539 25.6241 2.87998 25.9787 3.31725 25.9787H22.6602C23.0975 25.9787 23.4521 25.6242 23.4521 25.1869ZM17.6628 2.70388L20.7486 5.78966H17.6628V2.70388ZM4.1091 24.395V1.58395H16.079V6.58143C16.079 7.01869 16.4336 7.37329 16.8709 7.37329H21.8684V24.395H4.1091Z" fill="#E82027"/>
</g>
<defs>
<clipPath id="clip0_102_171">
<rect width="35" height="35" fill="white" transform="translate(0 0.000244141)"/>
</clipPath>
</defs>
</svg>
