<svg width="50" height="51" viewBox="0 0 50 51" fill="none" xmlns="http://www.w3.org/2000/svg">
<circle cx="33" cy="36" r="15" fill="#E82027"/>
<path d="M18.7194 0C18.3253 0 17.9596 0.20509 17.7541 0.541403C17.1517 1.52704 3.00195 24.7909 3.00195 34.2827C3.00195 42.9492 10.0527 50 18.7194 50C27.386 50 34.4367 42.9492 34.4367 34.2827C34.4367 24.7909 20.2869 1.52704 19.6845 0.541403C19.4791 0.20509 19.1135 0 18.7194 0ZM18.7194 47.7376C11.3004 47.7376 5.26451 41.7017 5.26451 34.2827C5.26451 26.7856 15.4883 8.82738 18.7194 3.33959C21.9505 8.82738 32.1742 26.7856 32.1742 34.2827C32.1742 41.7017 26.1385 47.7376 18.7194 47.7376Z" fill="white"/>
<path d="M10.9333 24.5618C10.6323 25.2781 10.3503 25.9768 10.0951 26.6388C8.35209 31.1609 8.0918 33.369 8.0918 34.2828C8.0918 40.1424 12.859 44.9096 18.7186 44.9096C24.5782 44.9096 29.3454 40.1424 29.3454 34.2828C29.3454 33.3665 29.0838 31.1516 27.3318 26.6123C27.0786 25.956 26.7999 25.2662 26.504 24.562C26.3274 24.1422 25.9166 23.8691 25.4611 23.8691L11.9762 23.8689C11.5209 23.8689 11.1098 24.142 10.9333 24.5618ZM12.7316 26.1313L24.7058 26.1316C24.887 26.5743 25.0596 27.0079 25.2213 27.4269C26.9488 31.9029 27.0831 33.8061 27.0831 34.2827C27.0831 38.8948 23.3308 42.6471 18.7187 42.6471C14.1066 42.6471 10.3544 38.8948 10.3544 34.2827C10.3544 33.8075 10.488 31.9105 12.2063 27.4525C12.3704 27.0265 12.5463 26.5842 12.7316 26.1313Z" fill="white"/>
<path d="M45.8685 0H38.7836C38.1589 0 37.6523 0.506448 37.6523 1.13122C37.6523 1.756 38.1589 2.26244 38.7836 2.26244H44.7373V7.95622H41.1591C40.5345 7.95622 40.0279 8.46267 40.0279 9.08744C40.0279 9.71222 40.5345 10.2187 41.1591 10.2187H44.7373V15.9124H41.1591C40.5345 15.9124 40.0279 16.4189 40.0279 17.0437C40.0279 17.6684 40.5345 18.1749 41.1591 18.1749H44.7373V23.8688H38.7836C38.1589 23.8688 37.6523 24.3752 37.6523 25C37.6523 25.6248 38.1589 26.1312 38.7836 26.1312H44.7373V31.825H41.1591C40.5345 31.825 40.0279 32.3314 40.0279 32.9562C40.0279 33.581 40.5345 34.0874 41.1591 34.0874H44.7373V39.7812H41.1591C40.5345 39.7812 40.0279 40.2877 40.0279 40.9124C40.0279 41.5372 40.5345 42.0437 41.1591 42.0437H44.7373V47.7376H38.7836C38.1589 47.7376 37.6523 48.244 37.6523 48.8688C37.6523 49.4936 38.1589 50 38.7836 50H45.8685C46.4932 50 46.9997 49.4936 46.9997 48.8688V1.13122C46.9997 0.506448 46.4932 0 45.8685 0Z" fill="white"/>
</svg>
