<svg width="100" height="100" viewBox="0 0 100 100" fill="none" xmlns="http://www.w3.org/2000/svg">
<circle cx="50" cy="50.0002" r="50" fill="#32425A"/>
<circle cx="50" cy="50.0002" r="39" fill="white"/>
<g filter="url(#filter0_d_102_150)">
<circle cx="24" cy="14.0002" r="14" fill="white"/>
</g>
<path d="M25.0625 20.0002H23.6875V9.64087L21.5156 10.4299L21.0781 9.32056L23.9375 8.28149H25.0625V20.0002Z" fill="#74787C"/>
<g clip-path="url(#clip0_102_150)">
<path d="M38.3867 40.3301C38.3867 41.4013 39.2582 42.2729 40.3295 42.2729C41.4008 42.2729 42.2723 41.4014 42.2723 40.3301C42.2723 39.2588 41.4008 38.3873 40.3295 38.3873C39.2583 38.3873 38.3867 39.2588 38.3867 40.3301ZM40.6886 40.3301C40.6886 40.5281 40.5275 40.6892 40.3295 40.6892C40.1316 40.6892 39.9704 40.5281 39.9704 40.3301C39.9704 40.1321 40.1315 39.971 40.3295 39.971C40.5275 39.971 40.6886 40.1321 40.6886 40.3301Z" fill="#E82027"/>
<path d="M37.2771 40.3301C37.2771 38.6468 38.6464 37.2775 40.3297 37.2775C40.767 37.2775 41.1215 36.9229 41.1215 36.4856C41.1215 36.0483 40.767 35.6937 40.3297 35.6937C37.7732 35.6937 35.6934 37.7736 35.6934 40.3301C35.6934 40.7673 36.0479 41.1219 36.4852 41.1219C36.9226 41.1219 37.2771 40.7674 37.2771 40.3301Z" fill="#E82027"/>
<path d="M42.2129 37.928C42.9556 38.5115 43.3816 39.387 43.3816 40.3301C43.3816 42.0133 42.0122 43.3827 40.329 43.3827C39.8916 43.3827 39.5371 43.7373 39.5371 44.1746C39.5371 44.6119 39.8916 44.9665 40.329 44.9665C42.8855 44.9665 44.9653 42.8866 44.9653 40.3301C44.9653 38.8978 44.3187 37.5684 43.1914 36.6826C42.8475 36.4124 42.3497 36.4723 42.0794 36.8161C41.8093 37.16 41.8691 37.6578 42.2129 37.928Z" fill="#E82027"/>
<path d="M68 33.7921C68 33.3548 67.6455 33.0002 67.2081 33.0002H40.3299C36.2882 33.0002 33 36.2883 33 40.3301C33 40.3379 33.0002 40.3457 33.0003 40.3535C33.0003 40.3555 33 40.3574 33 40.3594V60.6704C33 64.7121 36.2882 68.0002 40.3299 68.0002C44.104 68.0002 47.2207 65.1329 47.6169 61.4623H60.8983C60.925 61.4623 60.9515 61.4609 60.9778 61.4583C61.1387 61.4422 61.2855 61.378 61.4034 61.2802C61.4101 61.2746 61.4163 61.2683 61.4229 61.2624C61.4356 61.2511 61.4485 61.2399 61.4605 61.2277C61.4613 61.227 61.4621 61.2262 61.463 61.2254L67.7661 54.8132C67.7677 54.8116 67.7693 54.8099 67.7708 54.8083L67.7729 54.8062C67.7757 54.8033 67.7781 54.8002 67.7809 54.7972C67.7955 54.782 67.8098 54.7663 67.8231 54.7499C67.8266 54.7455 67.8297 54.7409 67.8331 54.7366C67.8454 54.7208 67.8575 54.7047 67.8686 54.6879C67.8714 54.6836 67.8738 54.6792 67.8766 54.6748C67.8876 54.6575 67.8983 54.6398 67.908 54.6216C67.9098 54.6181 67.9113 54.6145 67.9131 54.611C67.923 54.5918 67.9324 54.5722 67.9406 54.5521C67.9419 54.5491 67.9427 54.5459 67.9439 54.5429C67.9521 54.5223 67.9598 54.5014 67.9662 54.4799C67.9673 54.4763 67.968 54.4725 67.969 54.4688C67.975 54.4481 67.9804 54.4272 67.9847 54.4058C67.9861 54.3986 67.9868 54.3913 67.988 54.3841C67.9911 54.3661 67.9942 54.3482 67.996 54.3297C67.9984 54.3063 67.9994 54.2826 67.9996 54.2589C67.9996 54.2564 68 54.254 68 54.2515V54.2513V33.7921ZM66.4163 34.584V53.4596H60.8982C60.4609 53.4596 60.1064 53.8142 60.1064 54.2514V59.8786H47.6597V40.3594C47.6597 40.3575 47.6594 40.3555 47.6594 40.3536C47.6594 40.3457 47.6597 40.338 47.6597 40.3301C47.6597 38.0041 46.5703 35.9277 44.8752 34.584L66.4163 34.584ZM65.3192 55.0433L61.6901 58.7353V55.0433H65.3192ZM40.3299 34.584C43.4983 34.584 46.076 37.1617 46.076 40.3301C46.076 43.4986 43.4983 46.0762 40.3299 46.0762C37.1614 46.0763 34.5837 43.4986 34.5837 40.3301C34.5837 37.1617 37.1614 34.584 40.3299 34.584ZM40.3299 66.4165C37.1614 66.4165 34.5837 63.8388 34.5837 60.6704V44.8755C35.9274 46.5707 38.0037 47.66 40.3299 47.66C42.656 47.66 44.7323 46.5707 46.076 44.8755V60.6704C46.076 63.8388 43.4983 66.4165 40.3299 66.4165Z" fill="#E82027"/>
</g>
<defs>
<filter id="filter0_d_102_150" x="6" y="0.000244141" width="36" height="36" filterUnits="userSpaceOnUse" color-interpolation-filters="sRGB">
<feFlood flood-opacity="0" result="BackgroundImageFix"/>
<feColorMatrix in="SourceAlpha" type="matrix" values="0 0 0 0 0 0 0 0 0 0 0 0 0 0 0 0 0 0 127 0" result="hardAlpha"/>
<feOffset dy="4"/>
<feGaussianBlur stdDeviation="2"/>
<feComposite in2="hardAlpha" operator="out"/>
<feColorMatrix type="matrix" values="0 0 0 0 0.666667 0 0 0 0 0.594444 0 0 0 0 0.594444 0 0 0 0.25 0"/>
<feBlend mode="normal" in2="BackgroundImageFix" result="effect1_dropShadow_102_150"/>
<feBlend mode="normal" in="SourceGraphic" in2="effect1_dropShadow_102_150" result="shape"/>
</filter>
<clipPath id="clip0_102_150">
<rect width="35" height="35" fill="white" transform="translate(33 33.0002)"/>
</clipPath>
</defs>
</svg>
