<svg width="50" height="54" viewBox="0 0 50 54" fill="none" xmlns="http://www.w3.org/2000/svg">
<circle cx="32.9961" cy="39.0002" r="15" fill="#E82027"/>
<g clip-path="url(#clip0_88_1032)">
<path d="M46.406 31.7379H43.2065L45.9774 30.1381C46.8058 29.6598 47.3989 28.8852 47.6476 27.9569C47.8963 27.0286 47.7699 26.0613 47.2916 25.2329L41.7512 15.6364C41.273 14.8082 40.4983 14.215 39.57 13.9661C38.6412 13.7172 37.6742 13.8438 36.8459 14.3221L34.075 15.9219L35.6748 13.151C36.1531 12.3226 36.2795 11.3553 36.0308 10.4271C35.7821 9.49884 35.189 8.72418 34.3606 8.24601L24.7641 2.70543C23.0495 1.71533 20.849 2.30506 19.8591 4.01966L19.6166 4.43966C19.286 5.01215 19.4822 5.74419 20.0546 6.07478C20.6272 6.40525 21.3591 6.2092 21.6897 5.63671L21.9322 5.21659C22.2622 4.64517 22.9955 4.4484 23.5672 4.77839L33.1637 10.319C33.4383 10.4776 33.6353 10.7359 33.7186 11.0465C33.8018 11.3571 33.7604 11.6794 33.6018 11.954L20.3175 34.9631C20.3108 34.9743 20.3044 34.9856 20.298 34.997L19.6166 36.1773C19.5115 36.3592 19.4562 36.5657 19.4562 36.7758V37.269C19.4562 37.6967 19.6844 38.0918 20.0547 38.3055C20.2399 38.4124 20.4465 38.4659 20.6532 38.4659C20.8599 38.4659 21.0665 38.4124 21.2516 38.3055L22.5012 37.5842C22.7762 37.4254 22.9768 37.1639 23.0589 36.8574C23.1411 36.5507 23.098 36.224 22.9393 35.949L22.7259 35.5794L24.3977 32.6837L25.4471 34.5011C25.6689 34.8851 26.0711 35.0997 26.4848 35.0997C26.6878 35.0997 26.8936 35.048 27.0821 34.9392L31.663 32.2945C31.9379 32.1357 32.1385 31.8743 32.2206 31.5677C32.3029 31.261 32.2598 30.9343 32.1011 30.6595L29.4562 26.0786C29.2975 25.8036 29.0361 25.603 28.7294 25.5209C28.6708 25.5052 28.6113 25.4955 28.5517 25.4888L31.6813 20.0682L38.043 16.3952C38.3175 16.2367 38.6396 16.1952 38.9505 16.2784C39.2612 16.3617 39.5196 16.5587 39.6781 16.8333L45.2186 26.4297C45.377 26.7043 45.4186 27.0267 45.3354 27.3373C45.2522 27.6479 45.0551 27.9063 44.7805 28.0649L21.7724 41.3486C21.7603 41.3553 21.7485 41.3621 21.7366 41.3693L20.0547 42.3404C19.6844 42.5542 19.4562 42.9493 19.4562 43.3769V43.514C19.4562 44.175 19.9922 44.7109 20.6532 44.7109H22.352C23.0129 44.7109 23.5489 44.175 23.5489 43.514V43.0873L26.4446 41.4154V43.514C26.4446 44.175 26.9806 44.7109 27.6415 44.7109H32.931C33.592 44.7109 34.1279 44.175 34.1279 43.514V38.2244C34.1279 37.8289 33.9352 37.4792 33.6396 37.2613L39.0601 34.1319H46.4059C47.0659 34.1319 47.6028 34.6688 47.6028 35.3288V46.4098C47.6028 47.0698 47.0659 47.6068 46.4059 47.6068H20.152C19.4911 47.6068 18.9551 48.1426 18.9551 48.8037C18.9551 49.4648 19.4911 50.0006 20.152 50.0006H46.4061C48.3861 50.0006 49.9969 48.3898 49.9969 46.4098V35.3288C49.9968 33.3487 48.386 31.7379 46.406 31.7379ZM27.9817 28.3122L29.4296 30.82L26.9218 32.2678L25.78 30.29L26.392 29.2301L27.9817 28.3122ZM31.7342 39.4213V42.3171H28.8386V40.0333L29.8985 39.4214L31.7342 39.4213Z" fill="white"/>
<path d="M43.51 44.7108C44.1709 44.7108 44.7069 44.1749 44.7069 43.5139V38.2243C44.7069 37.5632 44.1709 37.0273 43.51 37.0273H38.2204C37.5594 37.0273 37.0234 37.5632 37.0234 38.2243V43.5139C37.0234 44.1749 37.5594 44.7108 38.2204 44.7108H43.51ZM39.4173 39.4213H42.313V42.317H39.4173V39.4213Z" fill="white"/>
<path d="M36.243 29.6497L40.8239 27.005C41.0988 26.8463 41.2994 26.5849 41.3815 26.2782C41.4637 25.9716 41.4206 25.6448 41.2619 25.37L38.6171 20.7891C38.2866 20.2167 37.5546 20.0204 36.9821 20.351L32.4012 22.9959C32.1263 23.1546 31.9257 23.416 31.8436 23.7227C31.7613 24.0293 31.8044 24.3561 31.9631 24.6309L34.608 29.2118C34.8298 29.5957 35.2319 29.8104 35.6457 29.8104C35.8487 29.8104 36.0545 29.7586 36.243 29.6497ZM34.6347 24.4704L37.1425 23.0225L38.5904 25.5303L36.0826 26.9781L34.6347 24.4704Z" fill="white"/>
<path d="M19.6153 25.5476C19.2851 26.1202 19.4816 26.8521 20.0542 27.1825L20.0764 27.1952C20.2648 27.3039 20.4704 27.3554 20.6732 27.3554C21.0868 27.3554 21.4892 27.1408 21.7109 26.7569L24.3558 22.176C24.5145 21.901 24.5576 21.5744 24.4753 21.2678C24.3931 20.9611 24.1926 20.6997 23.9177 20.541L21.2508 19.0012C20.6782 18.6708 19.9463 18.867 19.6158 19.4393C19.2852 20.0118 19.4814 20.7439 20.0539 21.0743L21.6842 22.0156L19.7614 25.3462C19.7068 25.4068 19.6578 25.4741 19.6153 25.5476Z" fill="white"/>
<path d="M20.7841 15.3883L25.365 18.0332C25.5535 18.142 25.7593 18.1937 25.9623 18.1937C26.3759 18.1937 26.7783 17.9791 27 17.5951L29.6449 13.0142C29.8036 12.7393 29.8467 12.4126 29.7644 12.106C29.6822 11.7993 29.4817 11.5379 29.2068 11.3792L24.6258 8.73424C24.0532 8.40365 23.3213 8.59982 22.9908 9.17231L20.3459 13.7532C20.1872 14.0281 20.1441 14.3548 20.2264 14.6614C20.3086 14.9681 20.5092 15.2295 20.7841 15.3883ZM24.4654 11.4059L26.9732 12.8537L25.5253 15.3615L23.0175 13.9136L24.4654 11.4059Z" fill="white"/>
<path d="M14.6679 0.000366211H3.58688C1.60692 0.000366211 -0.00390625 1.61119 -0.00390625 3.59115V46.4096C-0.00390625 48.3895 1.60692 50.0004 3.58688 50.0004H14.6679C16.6479 50.0004 18.2587 48.3895 18.2587 46.4096V3.59115C18.2587 1.61119 16.6479 0.000366211 14.6679 0.000366211ZM15.8648 46.4096C15.8648 47.0696 15.3279 47.6065 14.6679 47.6065H3.58688C2.92689 47.6065 2.38995 47.0696 2.38995 46.4096V3.59115C2.38995 2.93116 2.92689 2.39422 3.58688 2.39422H14.6679C15.3279 2.39422 15.8648 2.93116 15.8648 3.59115V46.4096Z" fill="white"/>
<path d="M9.12823 38.4753C7.80826 38.4753 6.73438 39.5492 6.73438 40.8691C6.73438 42.1891 7.80826 43.263 9.12823 43.263C10.4482 43.263 11.5221 42.1891 11.5221 40.8691C11.5221 39.5492 10.4482 38.4753 9.12823 38.4753Z" fill="white"/>
</g>
<defs>
<clipPath id="clip0_88_1032">
<rect width="50" height="50" fill="white" transform="translate(-0.00390625 0.000366211)"/>
</clipPath>
</defs>
</svg>
