<svg width="100" height="100" viewBox="0 0 100 100" fill="none" xmlns="http://www.w3.org/2000/svg">
<circle cx="50" cy="50.0002" r="50" fill="#32425A"/>
<circle cx="50" cy="50.0002" r="39" fill="#E82027"/>
<g filter="url(#filter0_d_102_165)">
<circle cx="24" cy="14.0002" r="14" fill="white"/>
</g>
<path d="M26.7031 20.0002H19.6641V19.1331C20.6276 18.3101 21.4479 17.5575 22.125 16.8752C22.8073 16.193 23.362 15.5601 23.7891 14.9768C24.2161 14.3935 24.5286 13.844 24.7266 13.3284C24.9297 12.8127 25.0312 12.3127 25.0312 11.8284C25.0312 11.3232 24.9349 10.8778 24.7422 10.4924C24.5495 10.1018 24.2812 9.79972 23.9375 9.58618C23.5938 9.36743 23.1953 9.25806 22.7422 9.25806C22.2266 9.25806 21.7344 9.40649 21.2656 9.70337C20.8021 9.99504 20.4219 10.3987 20.125 10.9143L19.3672 10.0627C19.7682 9.42733 20.2865 8.93254 20.9219 8.57837C21.5573 8.2242 22.2396 8.04712 22.9688 8.04712C23.6458 8.04712 24.2448 8.19816 24.7656 8.50024C25.2865 8.79712 25.6953 9.20858 25.9922 9.73462C26.2891 10.2607 26.4375 10.8674 26.4375 11.5549C26.4375 12.1122 26.3333 12.6877 26.125 13.2815C25.9167 13.87 25.6068 14.4716 25.1953 15.0862C24.7839 15.6956 24.2734 16.3101 23.6641 16.9299C23.0599 17.5497 22.362 18.1695 21.5703 18.7893H26.7031V20.0002Z" fill="#74787C"/>
<g clip-path="url(#clip0_102_165)">
<path d="M64.6818 42.0218H63.8904C63.4531 42.0218 63.0985 42.3764 63.0985 42.8136C63.0985 43.2508 63.4529 43.6052 63.8899 43.6055V66.4165H46.1306C46.1303 65.9794 45.7759 65.6252 45.3387 65.6252C44.9015 65.6252 44.5469 65.9798 44.5469 66.417V67.2084C44.5469 67.6457 44.9015 68.0002 45.3387 68.0002H64.6817C65.119 68.0002 65.4736 67.6457 65.4736 67.2084V42.8136C65.4736 42.3763 65.119 42.0218 64.6818 42.0218Z" fill="white"/>
<path d="M62.4657 64.2012V39.8064C62.4657 39.3691 62.1111 39.0145 61.6739 39.0145H60.8826C60.4453 39.0145 60.0907 39.3691 60.0907 39.8064C60.0907 40.2436 60.445 40.5979 60.882 40.5983V63.4093H43.1228C43.1225 62.9722 42.7681 62.618 42.3309 62.618C41.8937 62.618 41.5391 62.9726 41.5391 63.4099V64.2012C41.5391 64.6384 41.8937 64.993 42.3309 64.993H61.6739C62.1111 64.993 62.4657 64.6385 62.4657 64.2012Z" fill="white"/>
<path d="M59.4599 61.1941V36.7993C59.4599 36.3621 59.1053 36.0075 58.668 36.0075H56.044C55.6067 36.0075 55.2521 36.3621 55.2521 36.7993C55.2521 37.2366 55.6067 37.5912 56.044 37.5912H57.8762V60.4022H40.1169C40.1167 59.9651 39.7622 59.6109 39.3251 59.6109C38.8878 59.6109 38.5332 59.9655 38.5332 60.4027V61.1941C38.5332 61.6314 38.8878 61.9859 39.3251 61.9859H58.668C59.1054 61.9859 59.4599 61.6314 59.4599 61.1941Z" fill="white"/>
<path d="M56.4521 58.1869V39.5814C56.4521 39.5549 56.4508 39.5285 56.4482 39.5024C56.4463 39.4832 56.443 39.4645 56.4397 39.4457C56.4385 39.4391 56.438 39.4322 56.4366 39.4256C56.4321 39.4029 56.4262 39.3808 56.4198 39.3588C56.419 39.3561 56.4186 39.3534 56.4178 39.3508C56.411 39.3285 56.403 39.3067 56.3943 39.2854C56.3934 39.2829 56.3927 39.2804 56.3916 39.278C56.3833 39.2578 56.3737 39.2383 56.3638 39.219C56.3619 39.2153 56.3604 39.2115 56.3584 39.2078C56.3491 39.1905 56.3387 39.1739 56.3282 39.1574C56.3248 39.152 56.3219 39.1465 56.3183 39.1412C56.3084 39.1264 56.2975 39.1124 56.2866 39.0984C56.2817 39.0919 56.2772 39.0852 56.272 39.0788C56.26 39.0644 56.2471 39.0507 56.2342 39.0372C56.2294 39.0321 56.2251 39.0267 56.2202 39.0217L50.4309 33.2322C50.4259 33.2272 50.4204 33.223 50.4154 33.2182C50.4017 33.2053 50.3882 33.1923 50.3737 33.1804C50.3674 33.1752 50.3606 33.1707 50.3541 33.1657C50.3401 33.1549 50.3261 33.144 50.3114 33.1341C50.3061 33.1306 50.3005 33.1276 50.2952 33.1242C50.2786 33.1136 50.2621 33.1033 50.2447 33.094C50.2411 33.092 50.2372 33.0905 50.2335 33.0886C50.2143 33.0786 50.1947 33.0691 50.1746 33.0607C50.1721 33.0597 50.1696 33.059 50.1672 33.058C50.1458 33.0494 50.124 33.0414 50.1018 33.0346C50.0991 33.0338 50.0964 33.0333 50.0937 33.0326C50.0718 33.0261 50.0496 33.0203 50.027 33.0158C50.0203 33.0144 50.0135 33.0139 50.0068 33.0127C49.9881 33.0094 49.9693 33.0061 49.9501 33.0042C49.924 33.0016 49.8976 33.0002 49.8711 33.0002H36.3172C35.88 33.0002 35.5254 33.3548 35.5254 33.7921V58.1869C35.5254 58.6241 35.88 58.9787 36.3172 58.9787H55.6602C56.0975 58.9787 56.4521 58.6242 56.4521 58.1869ZM50.6628 35.7039L53.7486 38.7897H50.6628V35.7039ZM37.1091 57.395V34.584H49.079V39.5814C49.079 40.0187 49.4336 40.3733 49.8709 40.3733H54.8684V57.395H37.1091Z" fill="white"/>
</g>
<defs>
<filter id="filter0_d_102_165" x="6" y="0.000244141" width="36" height="36" filterUnits="userSpaceOnUse" color-interpolation-filters="sRGB">
<feFlood flood-opacity="0" result="BackgroundImageFix"/>
<feColorMatrix in="SourceAlpha" type="matrix" values="0 0 0 0 0 0 0 0 0 0 0 0 0 0 0 0 0 0 127 0" result="hardAlpha"/>
<feOffset dy="4"/>
<feGaussianBlur stdDeviation="2"/>
<feComposite in2="hardAlpha" operator="out"/>
<feColorMatrix type="matrix" values="0 0 0 0 0.666667 0 0 0 0 0.594444 0 0 0 0 0.594444 0 0 0 0.25 0"/>
<feBlend mode="normal" in2="BackgroundImageFix" result="effect1_dropShadow_102_165"/>
<feBlend mode="normal" in="SourceGraphic" in2="effect1_dropShadow_102_165" result="shape"/>
</filter>
<clipPath id="clip0_102_165">
<rect width="35" height="35" fill="white" transform="translate(33 33.0002)"/>
</clipPath>
</defs>
</svg>
