<svg width="100" height="100" viewBox="0 0 100 100" fill="none" xmlns="http://www.w3.org/2000/svg">
<circle cx="50" cy="50.0002" r="50" fill="#32425A"/>
<circle cx="50" cy="50.0002" r="39" fill="white"/>
<g filter="url(#filter0_d_102_180)">
<circle cx="24" cy="14.0002" r="14" fill="white"/>
</g>
<path d="M19.7891 18.9065L20.3672 17.8909C20.7995 18.2659 21.2448 18.5497 21.7031 18.7424C22.1667 18.9299 22.6354 19.0237 23.1094 19.0237C23.6042 19.0237 24.0391 18.9273 24.4141 18.7346C24.7891 18.5367 25.0833 18.2659 25.2969 17.9221C25.5104 17.5732 25.6172 17.1721 25.6172 16.719C25.6172 15.9898 25.3359 15.4221 24.7734 15.0159C24.2109 14.6044 23.4297 14.3987 22.4297 14.3987H22.0234V13.3987H22.4297C22.9714 13.3987 23.4531 13.3023 23.875 13.1096C24.3021 12.9169 24.638 12.6539 24.8828 12.3206C25.1276 11.982 25.25 11.5992 25.25 11.1721C25.25 10.8023 25.1562 10.4742 24.9688 10.1877C24.7865 9.89608 24.5339 9.66951 24.2109 9.50806C23.888 9.34139 23.5182 9.25806 23.1016 9.25806C22.6953 9.25806 22.2891 9.34399 21.8828 9.51587C21.4818 9.68254 21.0938 9.92733 20.7188 10.2502L20.0625 9.29712C20.4948 8.89608 20.9818 8.58879 21.5234 8.37524C22.0651 8.15649 22.6276 8.04712 23.2109 8.04712C23.8568 8.04712 24.4297 8.17212 24.9297 8.42212C25.4349 8.67212 25.8333 9.01587 26.125 9.45337C26.4167 9.88566 26.5625 10.3805 26.5625 10.9377C26.5625 11.5992 26.3568 12.1903 25.9453 12.7112C25.5391 13.232 25.013 13.6122 24.3672 13.8518C25.1953 14.0393 25.849 14.3961 26.3281 14.9221C26.8073 15.4482 27.0469 16.0992 27.0469 16.8752C27.0469 17.5211 26.8802 18.0992 26.5469 18.6096C26.2135 19.1148 25.7578 19.5133 25.1797 19.8049C24.6016 20.0914 23.9401 20.2346 23.1953 20.2346C22.5599 20.2346 21.9505 20.1226 21.3672 19.8987C20.7891 19.6695 20.263 19.3388 19.7891 18.9065Z" fill="#74787C"/>
<g clip-path="url(#clip0_102_180)">
<path d="M43.7381 40.8673C45.5115 41.3471 47.9131 41.6113 50.5002 41.6113C53.0874 41.6113 55.4889 41.3471 57.2624 40.8673C59.437 40.279 60.5395 39.4054 60.5395 38.2707C60.5395 37.1361 59.437 36.2624 57.2624 35.6741C55.4888 35.1944 53.0874 34.9301 50.5002 34.9301C47.9131 34.9301 45.5116 35.1944 43.7381 35.6741C41.5635 36.2624 40.4609 37.1361 40.4609 38.2707C40.4609 39.4054 41.5635 40.2789 43.7381 40.8673ZM44.1517 37.2029C45.7942 36.7585 48.0488 36.5138 50.5002 36.5138C52.9517 36.5138 55.2063 36.7585 56.8488 37.2029C58.5895 37.6738 58.9558 38.1888 58.9558 38.2707C58.9558 38.3526 58.5896 38.8676 56.8488 39.3385C55.2063 39.7828 52.9517 40.0276 50.5002 40.0276C48.0488 40.0276 45.7942 39.7829 44.1517 39.3385C42.411 38.8676 42.0446 38.3526 42.0446 38.2707C42.0446 38.1888 42.4109 37.6737 44.1517 37.2029Z" fill="#E82027"/>
<path d="M59.7737 33.6699C57.2837 32.5932 53.9905 32.0002 50.5006 32.0002C47.0107 32.0002 43.7175 32.5932 41.2275 33.6699C38.5266 34.8379 37.0391 36.4718 37.0391 38.2707V58.2645C37.0391 60.669 38.4888 62.9021 41.1212 64.5526C43.6385 66.1309 46.9696 67.0002 50.5006 67.0002C54.0316 67.0002 57.3627 66.1309 59.88 64.5525C62.5124 62.9021 63.9621 60.6689 63.9621 58.2644V38.2707C63.9621 36.4718 62.4746 34.8379 59.7737 33.6699ZM41.8561 35.1236C44.1521 34.1307 47.2221 33.584 50.5006 33.584C53.7791 33.584 56.8491 34.1307 59.1451 35.1236C61.1999 36.0121 62.3784 37.1591 62.3784 38.2707C62.3784 39.4307 61.1145 40.6136 58.9109 41.5161C58.6135 41.6379 58.4192 41.9275 58.4192 42.2489V51.7433C58.4192 52.0054 58.2061 52.2184 57.944 52.2184C57.682 52.2184 57.4689 52.0054 57.4689 51.7433V43.0549C57.4689 42.8121 57.3576 42.5828 57.1668 42.4326C56.9759 42.2825 56.7267 42.2281 56.4909 42.2853C55.716 42.4727 54.8919 42.6236 54.0414 42.7338C53.6467 42.785 53.3513 43.1211 53.3513 43.5191V58.8701C53.3513 59.1321 53.1382 59.3452 52.8762 59.3452C52.6141 59.3452 52.4011 59.1321 52.4011 58.8701V43.7283C52.4011 43.5131 52.3136 43.3072 52.1585 43.158C52.0107 43.0156 51.8137 42.9364 51.6092 42.9364C51.5993 42.9364 51.5894 42.9366 51.5795 42.937C51.2154 42.9506 50.8523 42.9575 50.5006 42.9575C47.2221 42.9575 44.1521 42.4108 41.8561 41.4179C39.8013 40.5292 38.6228 39.3822 38.6228 38.2707C38.6228 37.1592 39.8013 36.0121 41.8561 35.1236ZM59.0388 63.2108C56.7702 64.6332 53.7379 65.4165 50.5006 65.4165C47.2633 65.4165 44.231 64.6332 41.9624 63.2108C39.8088 61.8605 38.6228 60.1038 38.6228 58.2644V41.2964C39.2928 41.8811 40.1659 42.4123 41.2275 42.8714C43.7175 43.9482 47.0107 44.5411 50.5006 44.5411C50.6054 44.5411 50.711 44.5405 50.8173 44.5394V58.87C50.8173 60.0052 51.741 60.9289 52.8762 60.9289C54.0114 60.9289 54.935 60.0052 54.935 58.87V44.2057C55.2564 44.1554 55.5734 44.0995 55.8852 44.0383V51.7433C55.8852 52.8785 56.8088 53.8022 57.944 53.8022C59.0792 53.8022 60.0029 52.8785 60.0029 51.7433V42.7697C60.9616 42.3349 61.7576 41.8404 62.3784 41.2997V58.2643C62.3784 60.1038 61.1924 61.8605 59.0388 63.2108Z" fill="#E82027"/>
</g>
<defs>
<filter id="filter0_d_102_180" x="6" y="0.000244141" width="36" height="36" filterUnits="userSpaceOnUse" color-interpolation-filters="sRGB">
<feFlood flood-opacity="0" result="BackgroundImageFix"/>
<feColorMatrix in="SourceAlpha" type="matrix" values="0 0 0 0 0 0 0 0 0 0 0 0 0 0 0 0 0 0 127 0" result="hardAlpha"/>
<feOffset dy="4"/>
<feGaussianBlur stdDeviation="2"/>
<feComposite in2="hardAlpha" operator="out"/>
<feColorMatrix type="matrix" values="0 0 0 0 0.666667 0 0 0 0 0.594444 0 0 0 0 0.594444 0 0 0 0.25 0"/>
<feBlend mode="normal" in2="BackgroundImageFix" result="effect1_dropShadow_102_180"/>
<feBlend mode="normal" in="SourceGraphic" in2="effect1_dropShadow_102_180" result="shape"/>
</filter>
<clipPath id="clip0_102_180">
<rect width="35" height="35" fill="white" transform="translate(33 32.0002)"/>
</clipPath>
</defs>
</svg>
