<svg width="90" height="90" viewBox="0 0 90 90" fill="none" xmlns="http://www.w3.org/2000/svg">
<path d="M33.6937 0C32.9843 0 32.3262 0.369163 31.9562 0.974525C30.8719 2.74867 5.40234 44.6237 5.40234 61.7088C5.40234 77.3086 18.0938 90 33.6937 90C49.2936 90 61.9849 77.3086 61.9849 61.7088C61.9849 44.6237 36.5153 2.74867 35.431 0.974525C35.0612 0.369163 34.4031 0 33.6937 0ZM33.6937 85.9276C20.3395 85.9276 9.47495 75.0631 9.47495 61.7088C9.47495 48.2141 27.8777 15.8893 33.6937 6.01127C39.5097 15.8893 57.9125 48.2141 57.9125 61.7088C57.9125 75.0631 47.0481 85.9276 33.6937 85.9276Z" fill="#E82027"/>
<path d="M19.6792 44.211C19.1373 45.5004 18.6297 46.7581 18.1704 47.9497C15.033 56.0894 14.5645 60.0641 14.5645 61.7089C14.5645 72.2562 23.1454 80.8372 33.6927 80.8372C44.24 80.8372 52.821 72.2562 52.821 61.7089C52.821 60.0596 52.35 56.0727 49.1965 47.9021C48.7406 46.7207 48.2391 45.479 47.7064 44.2114C47.3886 43.4558 46.649 42.9643 45.8293 42.9643L21.5564 42.9639C20.7368 42.9639 19.9968 43.4554 19.6792 44.211ZM22.9161 47.0363L44.4697 47.0367C44.7959 47.8336 45.1064 48.6141 45.3976 49.3683C48.5071 57.4252 48.7488 60.8509 48.7488 61.7087C48.7488 70.0105 41.9947 76.7646 33.6929 76.7646C25.3911 76.7646 18.6371 70.0105 18.6371 61.7087C18.6371 60.8533 18.8775 57.4388 21.9705 49.4143C22.266 48.6475 22.5826 47.8514 22.9161 47.0363Z" fill="#E82027"/>
<path d="M82.5626 0H69.8096C68.6852 0 67.7734 0.911606 67.7734 2.0362C67.7734 3.16079 68.6852 4.0724 69.8096 4.0724H80.5264V14.3212H74.0857C72.9613 14.3212 72.0495 15.2328 72.0495 16.3574C72.0495 17.482 72.9613 18.3936 74.0857 18.3936H80.5264V28.6424H74.0857C72.9613 28.6424 72.0495 29.554 72.0495 30.6786C72.0495 31.8032 72.9613 32.7148 74.0857 32.7148H80.5264V42.9638H69.8096C68.6852 42.9638 67.7734 43.8754 67.7734 45C67.7734 46.1246 68.6852 47.0362 69.8096 47.0362H80.5264V57.285H74.0857C72.9613 57.285 72.0495 58.1966 72.0495 59.3212C72.0495 60.4458 72.9613 61.3574 74.0857 61.3574H80.5264V71.6062H74.0857C72.9613 71.6062 72.0495 72.5178 72.0495 73.6424C72.0495 74.767 72.9613 75.6786 74.0857 75.6786H80.5264V85.9276H69.8096C68.6852 85.9276 67.7734 86.8392 67.7734 87.9638C67.7734 89.0884 68.6852 90 69.8096 90H82.5626C83.6869 90 84.5988 89.0884 84.5988 87.9638V2.0362C84.5988 0.911606 83.6869 0 82.5626 0Z" fill="#E82027"/>
</svg>
