<svg width="21" height="21" viewBox="0 0 21 21" fill="none" xmlns="http://www.w3.org/2000/svg">
<g clip-path="url(#clip0_88_1329)">
<path d="M15.0293 0.351074H6.06795C3.02471 0.351074 0.548828 2.82707 0.548828 5.87032V14.8317C0.548828 17.8751 3.02471 20.351 6.06795 20.351H15.0293C18.0728 20.351 20.5487 17.875 20.5487 14.8317V5.87032C20.5488 2.82707 18.0728 0.351074 15.0293 0.351074ZM18.7743 14.8317C18.7743 16.8966 17.0944 18.5765 15.0295 18.5765H6.06795C4.00316 18.5766 2.32331 16.8966 2.32331 14.8317V5.87032C2.32331 3.80553 4.00316 2.12556 6.06795 2.12556H15.0293C17.0943 2.12556 18.7742 3.80553 18.7742 5.87032V14.8317H18.7743Z" fill="black"/>
<path d="M10.548 5.19775C7.70633 5.19775 5.39453 7.50955 5.39453 10.3512C5.39453 13.1928 7.70633 15.5044 10.548 15.5044C13.3897 15.5044 15.7015 13.1928 15.7015 10.3512C15.7015 7.50955 13.3897 5.19775 10.548 5.19775ZM10.548 13.7298C8.6849 13.7298 7.16902 12.2142 7.16902 10.3511C7.16902 8.48789 8.68478 6.97212 10.548 6.97212C12.4112 6.97212 13.927 8.48789 13.927 10.3511C13.927 12.2142 12.4111 13.7298 10.548 13.7298Z" fill="black"/>
<path d="M15.9185 3.69336C15.5766 3.69336 15.2407 3.83177 14.9993 4.07428C14.7567 4.31561 14.6172 4.65158 14.6172 4.99465C14.6172 5.33665 14.7568 5.6725 14.9993 5.91502C15.2406 6.15635 15.5766 6.29594 15.9185 6.29594C16.2615 6.29594 16.5963 6.15635 16.8388 5.91502C17.0814 5.6725 17.2198 5.33653 17.2198 4.99465C17.2198 4.65158 17.0814 4.31561 16.8388 4.07428C16.5975 3.83177 16.2615 3.69336 15.9185 3.69336Z" fill="black"/>
</g>
<defs>
<clipPath id="clip0_88_1329">
<rect width="20" height="20" fill="white" transform="translate(0.548828 0.351074)"/>
</clipPath>
</defs>
</svg>
