<svg width="21" height="21" viewBox="0 0 21 21" fill="none" xmlns="http://www.w3.org/2000/svg">
<path d="M3.45547 1.3667C2.08057 1.3667 1.18164 2.26952 1.18164 3.45616C1.18164 4.61659 2.05379 5.54517 3.40271 5.54517H3.4288C4.83059 5.54517 5.70297 4.61659 5.70297 3.45616C5.67677 2.26952 4.83059 1.3667 3.45547 1.3667Z" fill="#202220"/>
<path d="M1.41992 7.19629H5.43932V19.2888H1.41992V7.19629Z" fill="#202220"/>
<path d="M15.3039 6.91211C13.1356 6.91211 11.6816 8.94962 11.6816 8.94962V7.19592H7.66211V19.2884H11.6814V12.5355C11.6814 12.174 11.7076 11.813 11.8138 11.5545C12.1044 10.8326 12.7656 10.0848 13.876 10.0848C15.3305 10.0848 15.9122 11.1937 15.9122 12.8193V19.2884H19.9312V12.3548C19.9312 8.64051 17.9482 6.91211 15.3039 6.91211Z" fill="#202220"/>
</svg>
