<svg width="20" height="21" viewBox="0 0 20 21" fill="none" xmlns="http://www.w3.org/2000/svg">
<g clip-path="url(#clip0_88_907)">
<path d="M8.50025 20.5001C8.45725 20.5001 8.41325 20.4941 8.37025 20.4831C8.15225 20.4241 8.00025 20.2261 8.00025 20.0001V12.5001H0.500251C0.274251 12.5001 0.076251 12.3481 0.017251 12.1301C-0.041749 11.9121 0.054251 11.6811 0.249251 11.5681L19.2493 0.568065C19.4453 0.455065 19.6933 0.487065 19.8533 0.647065C20.0133 0.807065 20.0463 1.05506 19.9323 1.25106L8.93225 20.2511C8.84125 20.4081 8.67425 20.5001 8.49925 20.5001H8.50025ZM2.36225 11.5001H8.50025C8.77625 11.5001 9.00025 11.7241 9.00025 12.0001V18.1381L18.1283 2.37206L2.36225 11.5001Z" fill="#E82027"/>
</g>
<defs>
<clipPath id="clip0_88_907">
<rect width="20" height="20" fill="white" transform="translate(0 0.5)"/>
</clipPath>
</defs>
</svg>
