<svg width="180" height="90" viewBox="0 0 180 90" fill="none" xmlns="http://www.w3.org/2000/svg">
<path fill-rule="evenodd" clip-rule="evenodd" d="M52.3248 45.0686C50.9117 51.6705 39.5891 64.1451 29.7765 71.9546C19.5576 80.3792 10.8548 84.1387 5.16016 87.5735C7.68304 78.6362 11.3097 64.8515 18.1142 45.0971C32.2084 45.1028 49.6503 45.0971 52.3248 45.0686Z" fill="#E39717"/>
<path fill-rule="evenodd" clip-rule="evenodd" d="M10.231 45.0914C7.62323 54.7749 5.7432 63.5641 4.4393 70.428C3.05657 77.5084 2.24998 82.6805 0 90.0001V45.0686C1.15228 45.08 5.04577 45.0914 10.231 45.0914Z" fill="#E39717"/>
<path fill-rule="evenodd" clip-rule="evenodd" d="M3.05185 12.4348C2.26936 8.24363 1.25724 4.0932 0.0195312 0V10.4354C0.850385 10.9765 1.8935 11.6487 3.05185 12.4348Z" fill="#FDB913"/>
<path fill-rule="evenodd" clip-rule="evenodd" d="M3.10509 12.7086C2.09229 11.951 1.06131 11.2162 0 10.5042V45.0686C1.15228 45.0686 5.04577 45.0686 10.231 45.0686C7.62323 35.3395 5.73714 26.5218 4.43324 19.6237C3.94807 17.1573 3.53568 14.9016 3.10509 12.7086Z" fill="#FDB913"/>
<path fill-rule="evenodd" clip-rule="evenodd" d="M45.7286 45.0854C45.7286 45.0854 32.8291 21.3152 11.888 8.71527C11.888 8.71527 39.7853 24.6361 48.6336 45.0854H52.3209C50.9139 38.5006 39.5851 25.9861 29.7726 18.1425C19.5537 9.68362 10.8449 5.88996 5.15625 2.44946C5.81123 4.7849 6.54505 7.45641 7.38803 10.4754C14.7202 15.1292 34.1755 28.6519 41.2772 45.1025H38.3783C38.3783 45.1025 26.6493 23.4969 7.41229 10.5665C7.95811 12.5146 8.54637 14.6108 9.19528 16.8323C17.8859 23.4399 28.9417 33.5392 33.9268 45.074H31.0219C31.0219 45.074 23.0772 30.4462 9.55311 18.057C11.6939 25.462 14.4412 34.3994 18.1103 45.0854C29.0569 45.0854 42.011 45.0854 48.5123 45.0854H45.7286Z" fill="#FDB913"/>
<path d="M81.6556 57.429C81.6556 57.429 77.5438 57.748 74.4872 57.748C71.649 57.748 68.9805 56.8081 67.3673 55.2929C64.4745 52.5758 64.4199 47.8879 64.4199 43.8037C64.4199 39.7195 64.4745 35.0829 67.3673 32.3658C68.9805 30.8506 71.6126 29.9107 74.4326 29.9107C77.374 29.9107 79.5997 30.6455 81.4858 32.6278V23.0696L88.7148 20.25V57.429H81.6556ZM76.5431 36.0227C72.2069 36.0227 71.6489 39.3664 71.6489 43.8037C71.6489 48.241 72.2069 51.636 76.5431 51.636C80.8793 51.636 81.4858 48.2182 81.4858 43.8037C81.4858 39.3892 80.9036 36.0227 76.5431 36.0227Z" fill="#ED1C24"/>
<path d="M92.2734 25.5759V20.0449H99.6662V25.5759H92.2734ZM92.3826 57.429V30.224H99.6116V57.429H92.3826Z" fill="#ED1C24"/>
<path d="M119.18 57.4286C119.18 57.4286 115.396 57.6907 112.06 57.6907C108.725 57.6907 106.39 56.9103 104.667 55.2926C103.06 53.6217 102.204 51.4313 102.278 49.1806C102.278 44.8458 105.444 41.2971 112.175 41.2971H119.01V39.9357C119.01 36.9623 117.458 35.6578 113.619 35.6578C110.841 35.6578 109.561 36.2844 108.057 37.9021L103.442 33.6699C106.281 30.7477 109.058 29.9104 113.898 29.9104C122.012 29.9104 126.239 33.1515 126.239 39.5199V57.4286H119.18ZM119.01 45.9451H113.285C110.671 45.9451 109.228 47.0844 109.228 49.0268C109.228 50.9692 110.562 52.1597 113.394 52.1597C115.396 52.1597 116.675 52.0002 117.955 50.8495C118.731 50.1717 119.01 49.078 119.01 47.4318V45.9451Z" fill="#ED1C24"/>
<path d="M145.534 57.4286C145.534 57.4286 141.749 57.6907 138.414 57.6907C135.078 57.6907 132.743 56.9103 131.021 55.2926C129.414 53.6217 128.557 51.4313 128.631 49.1806C128.631 44.8458 131.797 41.2971 138.523 41.2971H145.364V39.9357C145.364 36.9623 143.805 35.6578 139.972 35.6578C137.195 35.6578 135.915 36.2844 134.411 37.9021L129.796 33.6699C132.634 30.7477 135.412 29.9104 140.251 29.9104C148.366 29.9104 152.593 33.1515 152.593 39.5199V57.4286H145.534ZM145.364 45.9451H139.639C137.025 45.9451 135.581 47.0844 135.581 49.0268C135.581 50.9692 136.916 52.1597 139.748 52.1597C141.749 52.1597 143.029 52.0002 144.308 50.8495C145.085 50.1717 145.364 49.078 145.364 47.4318V45.9451Z" fill="#ED1C24"/>
<path d="M172.777 57.4286V41.0123C172.777 37.304 170.273 36.0509 167.992 36.0509C165.712 36.0509 163.141 37.304 163.141 41.0123V57.4571H155.93V30.2237C155.93 30.2237 167.55 29.9104 170.218 29.9104C173.105 29.9104 175.446 30.799 177.053 32.3142C179.388 34.5072 180 37.0648 180 40.0439V57.4286H172.777Z" fill="#ED1C24"/>
<g style="mix-blend-mode:multiply" opacity="0.5">
<mask id="mask0_88_940" style="mask-type:luminance" maskUnits="userSpaceOnUse" x="64" y="20" width="116" height="38">
<path d="M81.6536 57.429C81.6536 57.429 77.5418 57.748 74.4853 57.748C71.647 57.748 68.9786 56.8081 67.3654 55.2929C64.4725 52.5758 64.418 47.8879 64.418 43.8037C64.418 39.7195 64.4725 35.0829 67.3654 32.3658C68.9786 30.8506 71.6106 29.9107 74.4307 29.9107C77.372 29.9107 79.5977 30.6455 81.4838 32.6278V23.0696L88.7129 20.25V57.429H81.6536ZM76.5412 36.0227C72.2049 36.0227 71.647 39.3664 71.647 43.8037C71.647 48.241 72.2049 51.636 76.5412 51.636C80.8774 51.636 81.4838 48.2182 81.4838 43.8037C81.4838 39.3892 80.9016 36.0227 76.5412 36.0227ZM92.2728 25.5759V20.0449H99.6656V25.5759H92.2728ZM92.382 57.429V30.224H99.611V57.429H92.382ZM119.182 57.429C119.182 57.429 115.397 57.691 112.062 57.691C108.726 57.691 106.391 56.9106 104.669 55.2929C103.062 53.622 102.205 51.4317 102.279 49.1809C102.279 44.8461 105.445 41.2974 112.177 41.2974H119.012V39.936C119.012 36.9626 117.459 35.6582 113.62 35.6582C110.843 35.6582 109.563 36.2847 108.059 37.9025L103.444 33.6702C106.282 30.748 109.06 29.9107 113.899 29.9107C122.014 29.9107 126.241 33.1518 126.241 39.5202V57.429H119.182ZM119.012 45.9455H113.287C110.673 45.9455 109.229 47.0847 109.229 49.0271C109.229 50.9695 110.564 52.16 113.396 52.16C115.397 52.16 116.677 52.0005 117.957 50.8499C118.733 50.172 119.012 49.0784 119.012 47.4322V45.9455ZM145.532 57.429C145.532 57.429 141.748 57.691 138.412 57.691C135.077 57.691 132.742 56.9106 131.02 55.2929C129.412 53.622 128.556 51.4317 128.63 49.1809C128.63 44.8461 131.796 41.2974 138.522 41.2974H145.363V39.936C145.363 36.9626 143.804 35.6582 139.971 35.6582C137.194 35.6582 135.914 36.2847 134.41 37.9025L129.795 33.6702C132.633 30.748 135.41 29.9107 140.25 29.9107C148.365 29.9107 152.592 33.1518 152.592 39.5202V57.429H145.532ZM145.363 45.9455H139.638C137.024 45.9455 135.58 47.0847 135.58 49.0271C135.58 50.9695 136.915 52.16 139.747 52.16C141.748 52.16 143.028 52.0005 144.307 50.8499C145.084 50.172 145.363 49.0784 145.363 47.4322V45.9455ZM172.775 57.429V41.0126C172.775 37.3044 170.27 36.0512 167.99 36.0512C165.709 36.0512 163.138 37.3044 163.138 41.0126V57.4575H155.927V30.224C155.927 30.224 167.547 29.9107 170.215 29.9107C173.102 29.9107 175.443 30.7993 177.05 32.3145C179.385 34.5075 179.998 37.0651 179.998 40.0442V57.429H172.775Z" fill="white"/>
</mask>
<g mask="url(#mask0_88_940)">
<path d="M204.785 45.0801H46.5469V59.406H204.785V45.0801Z" fill="url(#paint0_linear_88_940)"/>
</g>
</g>
<defs>
<linearGradient id="paint0_linear_88_940" x1="125.666" y1="53.4079" x2="125.666" y2="43.6048" gradientUnits="userSpaceOnUse">
<stop stop-color="white"/>
<stop offset="1" stop-color="#231F20"/>
</linearGradient>
</defs>
</svg>
