<svg width="60" height="60" viewBox="0 0 60 60" fill="none" xmlns="http://www.w3.org/2000/svg">
<path d="M6.53125 25.2668C6.53125 37.9635 28.283 57.0958 29.2088 57.9042C29.4275 58.0949 29.7078 58.2 29.998 58.2C30.2882 58.2 30.5686 58.0949 30.7873 57.9042C31.7131 57.0958 53.4648 37.9635 53.4648 25.2668C53.4648 19.0431 50.9925 13.0742 46.5916 8.67331C42.1907 4.27244 36.2218 1.80005 29.998 1.80005C23.7743 1.80005 17.8054 4.27244 13.4045 8.67331C9.00364 13.0742 6.53125 19.0431 6.53125 25.2668ZM29.998 4.20005C35.5834 4.20638 40.9381 6.42795 44.8875 10.3774C48.8369 14.3268 51.0585 19.6815 51.0648 25.2668C51.0648 35.604 33.9162 51.818 29.998 55.3873C26.0799 51.818 8.93125 35.604 8.93125 25.2668C8.93759 19.6815 11.1592 14.3268 15.1086 10.3774C19.058 6.42795 24.4127 4.20638 29.998 4.20005Z" fill="#E82027"/>
<path d="M29.9957 38.8664C32.7383 38.8663 35.4192 38.0531 37.6996 36.5294C39.9799 35.0057 41.7572 32.84 42.8067 30.3062C43.8562 27.7724 44.1308 24.9843 43.5958 22.2944C43.0607 19.6046 41.74 17.1338 39.8008 15.1945C37.8615 13.2552 35.3907 11.9346 32.7008 11.3995C30.011 10.8645 27.2229 11.1391 24.6891 12.1886C22.1553 13.2381 19.9896 15.0154 18.4659 17.2957C16.9422 19.5761 16.1289 22.257 16.1289 24.9996C16.1331 28.676 17.5954 32.2006 20.195 34.8002C22.7947 37.3999 26.3193 38.8622 29.9957 38.8664ZM29.9957 13.5331C32.2636 13.5331 34.4805 14.2056 36.3662 15.4656C38.2519 16.7256 39.7216 18.5165 40.5894 20.6118C41.4573 22.707 41.6843 25.0126 41.2419 27.2369C40.7994 29.4612 39.7073 31.5044 38.1036 33.108C36.4999 34.7116 34.4568 35.8037 32.2325 36.2461C30.0081 36.6885 27.7026 36.4614 25.6073 35.5935C23.5121 34.7256 21.7213 33.2558 20.4613 31.3701C19.2014 29.4844 18.5289 27.2675 18.5289 24.9996C18.5324 21.9595 19.7416 19.0449 21.8913 16.8953C24.041 14.7456 26.9556 13.5365 29.9957 13.5331Z" fill="#E82027"/>
</svg>
