<svg width="50" height="50" viewBox="0 0 50 50" fill="none" xmlns="http://www.w3.org/2000/svg">
<g clip-path="url(#clip0_88_1385)">
<path d="M35.9348 50C34.3208 50 32.7205 49.7147 31.1556 49.1461C24.2616 46.6417 17.8624 42.5628 12.6497 37.3502C7.43705 32.1376 3.35812 25.7384 0.853829 18.8443C0.0490765 16.6288 -0.188414 14.3418 0.148193 12.0466C0.463513 9.89666 1.29629 7.80954 2.55659 6.01079C3.82246 4.20412 5.51008 2.70145 7.43696 1.66526C9.49176 0.560329 11.7345 0 14.1032 0C14.8399 0 15.4766 0.514725 15.631 1.23501L18.0834 12.6798C18.1944 13.198 18.0352 13.7372 17.6605 14.112L13.4699 18.3025C17.4231 26.1621 23.8377 32.5767 31.6973 36.5299L35.8877 32.3393C36.2624 31.9646 36.8018 31.8055 37.32 31.9164L48.7648 34.3688C49.4851 34.5232 49.9998 35.1599 49.9998 35.8966C49.9998 38.2652 49.4394 40.5081 48.3344 42.5629C47.2982 44.4898 45.7955 46.1774 43.9889 47.4433C42.1902 48.7036 40.1031 49.5364 37.9531 49.8517C37.2794 49.9506 36.6058 49.9999 35.9348 50ZM12.8548 3.19323C9.73042 3.53814 6.95729 5.17576 5.11576 7.80407C3.04495 10.7595 2.56206 14.3946 3.79092 17.7775C8.60556 31.0314 18.9685 41.3944 32.2225 46.209C35.6052 47.4379 39.2404 46.9551 42.1959 44.8842C44.8242 43.0427 46.4618 40.2695 46.8067 37.1452L37.4965 35.1501L33.1201 39.5265C32.6544 39.9922 31.9468 40.1159 31.3509 39.8359C22.0554 35.4689 14.5311 27.9446 10.1641 18.649C9.88412 18.0531 10.0078 17.3455 10.4735 16.8799L14.8498 12.5035L12.8548 3.19323Z" fill="#E82027"/>
<path d="M48.4365 26.5614C47.5736 26.5614 46.874 25.8618 46.874 24.999C46.874 12.9376 37.0614 3.12487 24.9999 3.12487C24.1371 3.12487 23.4375 2.42529 23.4375 1.56244C23.4375 0.699581 24.1371 0 24.9999 0C31.6775 0 37.9553 2.60028 42.6769 7.32197C47.3986 12.0436 49.9989 18.3214 49.9989 24.999C49.9989 25.8618 49.2994 26.5614 48.4365 26.5614Z" fill="#E82027"/>
<path d="M42.1867 26.5612C41.3239 26.5612 40.6243 25.8616 40.6243 24.9987C40.6243 16.3835 33.6152 9.37438 24.9999 9.37438C24.1371 9.37438 23.4375 8.6748 23.4375 7.81195C23.4375 6.94909 24.1371 6.24951 24.9999 6.24951C35.3383 6.24951 43.7492 14.6604 43.7492 24.9987C43.7492 25.8616 43.0497 26.5612 42.1867 26.5612Z" fill="#E82027"/>
<path d="M35.937 26.5614C35.0741 26.5614 34.3746 25.8619 34.3746 24.999C34.3746 19.8298 30.1692 15.6244 24.9999 15.6244C24.1371 15.6244 23.4375 14.9248 23.4375 14.0619C23.4375 13.1991 24.1371 12.4995 24.9999 12.4995C31.8922 12.4995 37.4994 18.1067 37.4994 24.999C37.4994 25.8619 36.7999 26.5614 35.937 26.5614Z" fill="#E82027"/>
</g>
<defs>
<clipPath id="clip0_88_1385">
<rect width="50" height="50" fill="white"/>
</clipPath>
</defs>
</svg>
