<svg width="90" height="90" viewBox="0 0 90 90" fill="none" xmlns="http://www.w3.org/2000/svg">
<path d="M82.9301 54.8891H80.8343V45.794C80.8343 44.6694 79.9224 43.7578 78.7981 43.7578H76.9942V26.6352C76.9942 25.5106 76.0824 24.599 74.958 24.599H68.4259V5.17121C68.4259 4.04662 67.5141 3.13501 66.3897 3.13501H14.4446C13.3202 3.13501 12.4084 4.04662 12.4084 5.17121V24.599H5.87627C4.75188 24.599 3.84007 25.5106 3.84007 26.6352V43.7578H2.0362C0.91181 43.7578 0 44.6694 0 45.794V84.8289C0 85.9535 0.91181 86.8651 2.0362 86.8651H78.7981C79.9224 86.8651 80.8343 85.9535 80.8343 84.8289V75.7339H82.9301C86.8286 75.7339 90 72.5625 90 68.6642V61.959C90 58.0605 86.8286 54.8891 82.9301 54.8891ZM72.9218 28.6714V43.7578H68.4259V28.6714H72.9218ZM16.4808 7.20741H64.3533V43.7578H60.2475V40.6125C60.2475 36.7142 57.0761 33.5428 53.1776 33.5428H35.7618C31.8633 33.5428 28.6919 36.7142 28.6919 40.6125V43.7578H24.659V36.8372C24.659 35.7126 23.7472 34.801 22.6228 34.801C21.4984 34.801 20.5866 35.7126 20.5866 36.8372V43.7578H16.4808V7.20741ZM32.7643 43.7578V40.6125C32.7643 38.9597 34.109 37.6152 35.7618 37.6152H53.1778C54.8306 37.6152 56.1753 38.9599 56.1753 40.6125V43.7578H32.7643ZM7.91247 28.6714H12.4084V43.7578H7.91247V28.6714ZM76.7619 82.7927H4.0724V58.9615H16.2894C17.4138 58.9615 18.3256 58.0499 18.3256 56.9253C18.3256 55.8007 17.4138 54.8891 16.2894 54.8891H4.0724V47.8302H14.4446H66.3895H76.7617V54.8891H24.6785C23.5541 54.8891 22.6423 55.8007 22.6423 56.9253C22.6423 58.0499 23.5541 58.9615 24.6785 58.9615H76.7619V82.7927ZM85.9276 68.664C85.9276 70.3167 84.5829 71.6613 82.9301 71.6613H80.8343V58.9613H82.9301C84.5829 58.9613 85.9276 60.306 85.9276 61.9586V68.664Z" fill="#E82027"/>
<path d="M24.1534 17.3629H56.6796C57.804 17.3629 58.7158 16.4513 58.7158 15.3267C58.7158 14.2023 57.804 13.2905 56.6796 13.2905H24.1534C23.029 13.2905 22.1172 14.2023 22.1172 15.3267C22.1172 16.4515 23.029 17.3629 24.1534 17.3629Z" fill="#E82027"/>
<path d="M24.1534 27.5187H56.6796C57.804 27.5187 58.7158 26.6071 58.7158 25.4825C58.7158 24.3579 57.804 23.4463 56.6796 23.4463H24.1534C23.029 23.4463 22.1172 24.3579 22.1172 25.4825C22.1172 26.6071 23.029 27.5187 24.1534 27.5187Z" fill="#E82027"/>
<path d="M54.3643 68.063C53.2399 68.063 52.3281 68.9746 52.3281 70.0992V73.6976C52.3281 74.8222 53.2399 75.7338 54.3643 75.7338C55.4887 75.7338 56.4005 74.8222 56.4005 73.6976V70.0992C56.4005 68.9746 55.4889 68.063 54.3643 68.063Z" fill="#E82027"/>
<path d="M62.5089 68.063C61.3845 68.063 60.4727 68.9746 60.4727 70.0992V73.6976C60.4727 74.8222 61.3845 75.7338 62.5089 75.7338C63.6332 75.7338 64.5451 74.8222 64.5451 73.6976V70.0992C64.5451 68.9746 63.6334 68.063 62.5089 68.063Z" fill="#E82027"/>
<path d="M70.6534 68.063C69.529 68.063 68.6172 68.9746 68.6172 70.0992V73.6976C68.6172 74.8222 69.529 75.7338 70.6534 75.7338C71.7778 75.7338 72.6896 74.8222 72.6896 73.6976V70.0992C72.6896 68.9746 71.778 68.063 70.6534 68.063Z" fill="#E82027"/>
</svg>
