<svg width="20" height="21" viewBox="0 0 20 21" fill="none" xmlns="http://www.w3.org/2000/svg">
<g clip-path="url(#clip0_88_931)">
<path d="M18.87 19.662L12.927 13.178C14.266 11.777 15.002 9.945 15.002 8C15.002 5.997 14.222 4.113 12.805 2.697C11.388 1.281 9.50495 0.5 7.50195 0.5C5.49895 0.5 3.61495 1.28 2.19895 2.697C0.782953 4.114 0.00195312 5.997 0.00195312 8C0.00195312 10.003 0.781953 11.887 2.19895 13.303C3.61595 14.719 5.49895 15.5 7.50195 15.5C9.22795 15.5 10.864 14.921 12.19 13.855L18.133 20.338C18.232 20.446 18.366 20.5 18.502 20.5C18.623 20.5 18.744 20.457 18.84 20.369C19.044 20.182 19.057 19.866 18.871 19.663L18.87 19.662ZM1.00095 8C1.00095 4.416 3.91695 1.5 7.50095 1.5C11.085 1.5 14.001 4.416 14.001 8C14.001 11.584 11.085 14.5 7.50095 14.5C3.91695 14.5 1.00095 11.584 1.00095 8Z" fill="#202220"/>
</g>
<defs>
<clipPath id="clip0_88_931">
<rect width="20" height="20" fill="white" transform="translate(0 0.5)"/>
</clipPath>
</defs>
</svg>
