<svg width="25" height="25" viewBox="0 0 25 25" fill="none" xmlns="http://www.w3.org/2000/svg">
<g clip-path="url(#clip0_212_107)">
<path d="M12.5 0C5.59687 0 0 5.59687 0 12.5C0 19.4031 5.59687 25 12.5 25C19.4031 25 25 19.4031 25 12.5C25 5.59531 19.4031 0 12.5 0ZM9.375 18.5547H6.25V7.61719H9.375V18.5547ZM7.90937 6.94688C7.1 6.94688 6.44531 6.29062 6.44531 5.48125C6.44531 4.67188 7.10156 4.01562 7.90937 4.01562C8.71875 4.01719 9.375 4.67344 9.375 5.48125C9.375 6.29062 8.71875 6.94688 7.90937 6.94688ZM20.3125 18.5547H17.1875V11.7922C17.1875 11 16.9609 10.4453 15.9875 10.4453C14.3734 10.4453 14.0625 11.7922 14.0625 11.7922V18.5547H10.9375V7.61719H14.0625V8.6625C14.5094 8.32031 15.625 7.61875 17.1875 7.61875C18.2016 7.61875 20.3125 8.225 20.3125 11.8875V18.5547Z" fill="#74787C"/>
</g>
<defs>
<clipPath id="clip0_212_107">
<rect width="25" height="25" fill="white"/>
</clipPath>
</defs>
</svg>
