<svg width="15" height="15" viewBox="0 0 15 15" fill="none" xmlns="http://www.w3.org/2000/svg">
<path d="M14.2337 3.98524C14.0716 3.3828 13.5966 2.90789 12.9943 2.74567C11.8938 2.44458 7.49202 2.44458 7.49202 2.44458C7.49202 2.44458 3.09036 2.44458 1.98993 2.73426C1.39915 2.89631 0.912579 3.38288 0.75053 3.98524C0.460938 5.08559 0.460938 7.36757 0.460938 7.36757C0.460938 7.36757 0.460938 9.66105 0.75053 10.7499C0.91275 11.3523 1.38757 11.8272 1.99001 11.9894C3.10195 12.2906 7.49219 12.2906 7.49219 12.2906C7.49219 12.2906 11.8938 12.2906 12.9943 12.0009C13.5967 11.8387 14.0716 11.3638 14.2338 10.7615C14.5234 9.66105 14.5234 7.37916 14.5234 7.37916C14.5234 7.37916 14.5349 5.08559 14.2337 3.98524ZM6.09057 9.47574V5.2594L9.75091 7.36757L6.09057 9.47574Z" fill="white"/>
</svg>
